<svg id="Capa_1" data-name="Capa 1" xmlns="http://www.w3.org/2000/svg" viewBox="0 0 441 171"><defs><style>.cls-1{fill:#e4222c;}</style></defs><path class="cls-1" d="M79.1,36.58a41.35,41.35,0,0,1,21.26,15.81,55.3,55.3,0,0,1,8.88,20.13,97.44,97.44,0,0,1,2.36,20.64q0,24.87-10,42.12-13.58,23.28-41.83,23.28H6.06V33.87H59.81C67.52,34,74,34.88,79.1,36.58Zm-47.76,19v81.38H55.4q18.5,0,25.76-18.2,4-10,4-23.77,0-19-6-29.23T55.4,55.53Z"/><path class="cls-1" d="M307.57,107.2q-10.9,9.14-31.25,9.12H250.37v44.85H224.49V36.49H278q18.48,0,29.52,9.64c7.3,6.44,11,16.36,11,29.86C318.53,90.7,314.91,101.11,307.57,107.2ZM287.7,62.26c-3.28-2.76-7.94-4.13-13.84-4.13H250.37V94.85h23.49c5.9,0,10.56-1.51,13.84-4.5s4.94-7.74,4.94-14.21S291,65,287.7,62.26Z"/><path class="cls-1" d="M342.61,50.78q14.63-14.91,37.2-14.91,30.18,0,44.18,20c5.11,7.49,7.91,15,8.28,22.58H407c-1.63-5.81-3.72-10.2-6.23-13.15q-6.75-7.89-20-7.87-13.51,0-21.31,11.11t-7.79,31.49q0,20.39,8.21,30.49t20.94,10.15c8.65,0,15.27-2.91,19.81-8.7q3.79-4.68,6.3-14.06H432q-3.21,19.78-16.61,32.22t-34.24,12.38q-25.82,0-40.59-16.76c-9.84-11.2-14.78-26.62-14.78-46.11Q325.79,68,342.61,50.78Z"/><path class="cls-1" d="M189.69,62.3a40.59,40.59,0,0,1,17.09,14.63,48.69,48.69,0,0,1,7.87,20.45,127.55,127.55,0,0,1,.87,19.63h-72c.43,9.9,3.86,16.87,10.36,20.85a26.17,26.17,0,0,0,14.23,3.73c5.91,0,10.68-1.53,14.4-4.55a22.15,22.15,0,0,0,5.29-6.79h26.39c-.7,5.87-3.91,11.8-9.6,17.85q-13.26,14.42-37.18,14.44a54,54,0,0,1-34.82-12.15q-15.09-12.19-15.09-39.6,0-25.7,13.63-39.39t35.34-13.72A56.45,56.45,0,0,1,189.69,62.3ZM151,84.63q-5.52,5.67-6.89,15.32h44.53c-.49-6.87-2.78-12.06-6.91-15.64S172.55,79,166.43,79C159.82,79,154.69,80.89,151,84.63Z"/></svg>