<?xml version="1.0" encoding="utf-8"?>
<!-- Generator: Adobe Illustrator 16.0.0, SVG Export Plug-In . SVG Version: 6.00 Build 0)  -->
<!DOCTYPE svg PUBLIC "-//W3C//DTD SVG 1.1//EN" "http://www.w3.org/Graphics/SVG/1.1/DTD/svg11.dtd">
<svg version="1.1" id="Layer_1" xmlns="http://www.w3.org/2000/svg" xmlns:xlink="http://www.w3.org/1999/xlink" x="0px" y="0px"
	 width="70.333px" height="40.667px" viewBox="0 0 70.333 40.667" enable-background="new 0 0 70.333 40.667" xml:space="preserve">
<g>
	<defs>
		<rect id="SVGID_1_" x="-28.333" y="-40.44" width="243.82" height="153.107"/>
	</defs>
	<clipPath id="SVGID_2_">
		<use xlink:href="#SVGID_1_"  overflow="visible"/>
	</clipPath>
</g>
<g>
	<defs>
		<rect id="SVGID_4_" x="-28.333" y="-40.44" width="243.82" height="153.107"/>
	</defs>
	<clipPath id="SVGID_3_">
		<use xlink:href="#SVGID_4_"  overflow="visible"/>
	</clipPath>
	<path clip-path="url(#SVGID_3_)" fill-rule="evenodd" clip-rule="evenodd" fill="#FFFFFF" d="M46.626,24.465v-1.357h0.383
		c0.405,0,0.679,0.279,0.679,0.678v0.006c0,0.4-0.274,0.673-0.679,0.673H46.626z M46.131,24.912h0.878
		c0.707,0,1.196-0.492,1.196-1.126v-0.007c0-0.632-0.489-1.118-1.196-1.118h-0.878V24.912z M44.285,23.969l0.299-0.73l0.299,0.73
		H44.285z M43.398,24.912h0.505l0.205-0.505h0.952l0.206,0.505h0.518l-0.965-2.267h-0.456L43.398,24.912z M41.731,24.465v-1.357
		h0.383c0.405,0,0.679,0.279,0.679,0.678v0.006c0,0.4-0.274,0.673-0.679,0.673H41.731z M41.236,24.912h0.878
		c0.708,0,1.197-0.492,1.197-1.126v-0.007c0-0.632-0.489-1.118-1.197-1.118h-0.878V24.912z M40.178,24.912h0.496v-2.251h-0.496
		V24.912z M38.165,24.912h1.617v-0.45H38.66v-1.801h-0.495V24.912z M36.319,23.969l0.299-0.73l0.299,0.73H36.319z M35.431,24.912
		h0.505l0.206-0.505h0.952l0.205,0.505h0.519l-0.965-2.267h-0.457L35.431,24.912z M34.197,23.796v-0.688h0.382
		c0.248,0,0.402,0.118,0.402,0.34v0.007c0,0.193-0.145,0.341-0.392,0.341H34.197z M33.701,24.912h0.496v-0.675h0.376
		c0.504,0,0.91-0.271,0.91-0.792v-0.006c0-0.46-0.325-0.778-0.862-0.778h-0.92V24.912z M32.643,24.912h0.495v-2.251h-0.495V24.912z
		 M31.302,24.95c0.434,0,0.692-0.153,0.923-0.402L31.91,24.23c-0.177,0.161-0.335,0.264-0.592,0.264
		c-0.386,0-0.653-0.322-0.653-0.708v-0.007c0-0.385,0.273-0.7,0.653-0.7c0.225,0,0.402,0.096,0.576,0.254l0.314-0.363
		c-0.208-0.206-0.462-0.348-0.887-0.348c-0.691,0-1.174,0.525-1.174,1.164v0.006C30.147,24.44,30.639,24.95,31.302,24.95
		 M29.189,24.912h0.495v-2.251h-0.495V24.912z M26.625,24.912h0.489v-1.431l1.091,1.431h0.421v-2.251h-0.489v1.386l-1.054-1.386
		h-0.458V24.912z M25.133,24.947c0.605,0,0.988-0.334,0.988-1.016v-1.27h-0.495v1.289c0,0.357-0.184,0.54-0.486,0.54
		c-0.302,0-0.486-0.189-0.486-0.556v-1.273h-0.495v1.286C24.159,24.61,24.529,24.947,25.133,24.947 M21.403,24.912h0.485v-1.46
		l0.628,0.952h0.012l0.634-0.962v1.47h0.492v-2.251H23.12l-0.592,0.952l-0.591-0.952h-0.534V24.912z"/>
	<path clip-path="url(#SVGID_3_)" fill="#FFFFFF" d="M45.071,17.317h1.041l1.658,3.925h-1.157l-0.284-0.696h-1.503l-0.278,0.696
		h-1.135L45.071,17.317z M46.017,19.711l-0.433-1.107l-0.441,1.107H46.017z M41.927,17.345h1.085v3.896h-1.085V17.345z
		 M38.826,17.317h1.042l1.658,3.925h-1.158l-0.283-0.696h-1.504l-0.278,0.696h-1.135L38.826,17.317z M39.773,19.711l-0.435-1.107
		l-0.439,1.107H39.773z M35.015,21.314c-0.279,0-0.529-0.035-0.752-0.106c-0.223-0.071-0.412-0.179-0.567-0.326
		c-0.156-0.147-0.276-0.332-0.359-0.556c-0.084-0.225-0.125-0.489-0.125-0.793v-2.188h1.101v2.166c0,0.282,0.064,0.49,0.193,0.626
		c0.129,0.135,0.303,0.203,0.52,0.203c0.216,0,0.39-0.065,0.519-0.195c0.129-0.13,0.193-0.332,0.193-0.606v-2.194h1.102v2.16
		c0,0.315-0.044,0.587-0.131,0.815c-0.087,0.229-0.21,0.415-0.367,0.562s-0.349,0.255-0.574,0.326
		C35.544,21.279,35.293,21.314,35.015,21.314 M29.026,17.345h1.08v1.459h1.386v-1.459h1.079v3.897h-1.079v-1.481h-1.386v1.481h-1.08
		V17.345z M26.928,21.308c-0.349,0-0.68-0.054-0.994-0.162c-0.313-0.109-0.591-0.271-0.832-0.487l0.601-0.72
		c0.39,0.312,0.811,0.467,1.264,0.467c0.145,0,0.255-0.023,0.331-0.069c0.076-0.046,0.114-0.113,0.114-0.198v-0.01
		c0-0.04-0.009-0.077-0.028-0.108c-0.018-0.032-0.053-0.063-0.103-0.092c-0.05-0.03-0.117-0.058-0.2-0.086
		c-0.084-0.028-0.192-0.057-0.326-0.087c-0.208-0.048-0.401-0.101-0.578-0.157c-0.179-0.058-0.334-0.132-0.465-0.223
		c-0.132-0.091-0.236-0.204-0.312-0.339c-0.076-0.135-0.114-0.303-0.114-0.502v-0.011c0-0.182,0.034-0.349,0.103-0.5
		c0.069-0.152,0.169-0.284,0.3-0.396c0.132-0.11,0.291-0.196,0.476-0.257c0.186-0.061,0.396-0.092,0.63-0.092
		c0.333,0,0.631,0.044,0.892,0.132c0.262,0.087,0.498,0.217,0.71,0.388l-0.54,0.765c-0.178-0.126-0.361-0.221-0.548-0.286
		c-0.187-0.066-0.368-0.098-0.542-0.098c-0.131,0-0.228,0.025-0.293,0.073c-0.065,0.048-0.097,0.107-0.097,0.178v0.011
		c0,0.043,0.01,0.083,0.031,0.116c0.02,0.033,0.055,0.064,0.105,0.092c0.05,0.027,0.119,0.055,0.206,0.083
		c0.087,0.028,0.198,0.057,0.331,0.086c0.223,0.049,0.425,0.105,0.604,0.17c0.18,0.064,0.333,0.143,0.459,0.236
		c0.126,0.093,0.223,0.205,0.289,0.336c0.067,0.132,0.101,0.288,0.101,0.469v0.011c0,0.201-0.038,0.378-0.114,0.533
		c-0.076,0.156-0.183,0.289-0.32,0.399c-0.138,0.108-0.303,0.192-0.496,0.249S27.166,21.308,26.928,21.308 M22.932,21.314
		c-0.279,0-0.529-0.035-0.752-0.106c-0.222-0.071-0.411-0.179-0.567-0.326c-0.156-0.147-0.276-0.332-0.359-0.556
		c-0.083-0.225-0.125-0.489-0.125-0.793v-2.188h1.102v2.166c0,0.282,0.064,0.49,0.192,0.626c0.13,0.135,0.303,0.203,0.52,0.203
		c0.217,0,0.39-0.065,0.52-0.195c0.128-0.13,0.193-0.332,0.193-0.606v-2.194h1.101v2.16c0,0.315-0.043,0.587-0.131,0.815
		c-0.087,0.229-0.209,0.415-0.367,0.562s-0.349,0.255-0.573,0.326C23.462,21.279,23.21,21.314,22.932,21.314"/>
	<path clip-path="url(#SVGID_3_)" fill="#FFFFFF" d="M19.625,16.288l-1.473-2.891c-0.064-0.12-0.207-0.23-0.319-0.264
		c-0.132-0.041-0.28-0.031-0.411,0.038c-0.427,0.224-0.749,0.19-1.029,0.013c-0.32-0.204-0.619-0.595-0.944-1.021
		c-0.403-0.528-0.84-1.1-1.427-1.55c-0.599-0.46-1.343-0.784-2.339-0.787c-0.997,0.003-1.741,0.327-2.341,0.787
		c-0.587,0.45-1.023,1.022-1.426,1.55c-0.325,0.426-0.624,0.817-0.941,1.02c-0.355,0.226-0.68,0.166-1.038-0.016
		c-0.134-0.068-0.281-0.075-0.413-0.032c-0.144,0.047-0.242,0.138-0.315,0.269L3.74,16.288c-0.036,0.125-0.069,0.26-0.037,0.39
		l0.005,0.02c0.042,0.13,0.133,0.245,0.264,0.313c0.303,0.158,0.572,0.345,0.808,0.561c0.234,0.215,0.434,0.458,0.601,0.73
		c0.167,0.273,0.302,0.578,0.404,0.916c0.101,0.334,0.169,0.699,0.204,1.095c-0.067,1.005-0.28,1.486-0.719,2.363
		c-0.095,0.189-0.199,0.383-0.285,0.575c-0.265,0.543-0.475,1.131-0.596,1.725C4.274,25.53,4.237,26.092,4.3,26.635
		c0.059,0.51,0.205,1.002,0.459,1.458c0.251,0.449,0.634,0.849,1.01,1.158c0.178,0.135,0.365,0.249,0.567,0.347
		c0.217,0.106,0.428,0.181,0.659,0.252c0.225,0.066,0.466,0.119,0.725,0.164c0.282,0.048,0.587,0.099,0.872,0.113
		c0.173,0.007,0.344,0.013,0.506,0.019c0.15,0.004,0.296,0.009,0.43,0.012c0.279,0.008,0.495,0.015,0.679,0.029
		c0.098,0.008,0.244,0.02,0.335,0.057c0.185,0.069,0.476,0.507,0.593,0.664l0.228,0.268c0.12,0.089,0.265,0.12,0.401,0.099
		c0.136-0.021,0.266-0.094,0.354-0.215l0.118-0.159c0.163-0.222,0.282-0.384,0.383-0.495c0.078-0.087,0.14-0.138,0.204-0.162
		c0.075-0.029,0.182-0.045,0.335-0.057c0.184-0.014,0.4-0.021,0.679-0.029c0.134-0.003,0.278-0.008,0.428-0.012
		c0.175-0.006,0.365-0.007,0.538-0.022c0.31-0.031,0.589-0.067,0.842-0.11c0.058-0.01,0.732-0.145,0.725-0.165
		c0.235-0.068,0.452-0.15,0.653-0.248c0.163-0.079,0.465-0.245,0.595-0.368c0.428-0.333,0.751-0.716,0.984-1.132
		c0.256-0.458,0.404-0.953,0.463-1.466c0.063-0.541,0.025-1.1-0.087-1.652c-0.12-0.587-0.335-1.209-0.603-1.745
		c-0.075-0.153-0.196-0.448-0.288-0.576c-0.394-0.78-0.638-1.265-0.711-2.35c0.034-0.396,0.103-0.76,0.204-1.094
		c0.102-0.338,0.237-0.643,0.404-0.916c0.165-0.269,0.363-0.51,0.594-0.723c0.216-0.199,0.543-0.44,0.809-0.563
		c0.133-0.068,0.227-0.184,0.27-0.315C19.7,16.569,19.692,16.42,19.625,16.288 M19.265,16.774l-0.016,0.008
		c-0.639,0.337-1.138,0.797-1.495,1.379c-0.359,0.586-0.577,1.301-0.649,2.145c0.076,1.161,0.331,1.666,0.748,2.489
		c0.086,0.169,0.178,0.35,0.279,0.56l0.006,0.013c0.49,1.006,0.783,2.161,0.66,3.235c-0.107,0.92-0.517,1.778-1.362,2.43
		l-0.003,0.002c-0.329,0.248-0.697,0.425-1.139,0.555v0.001c-0.426,0.124-0.921,0.204-1.518,0.264l-0.017,0.001
		c-0.359,0.016-0.669,0.025-0.929,0.033c-0.581,0.015-0.898,0.025-1.102,0.101c-0.218,0.082-0.372,0.292-0.71,0.75L11.9,30.9
		c-0.089,0.12-0.258,0.146-0.379,0.058c-0.023-0.016-0.042-0.036-0.058-0.058l-0.117-0.159c-0.338-0.459-0.492-0.669-0.71-0.751
		c-0.204-0.076-0.521-0.086-1.102-0.101c-0.261-0.008-0.572-0.017-0.932-0.033l-0.014-0.001c-0.598-0.06-1.092-0.14-1.518-0.264
		l-0.013-0.005c-0.435-0.129-0.8-0.304-1.126-0.551l-0.014-0.011c-0.838-0.651-1.245-1.505-1.35-2.421
		c-0.125-1.078,0.172-2.24,0.665-3.248c0.101-0.21,0.193-0.392,0.279-0.56c0.417-0.823,0.673-1.328,0.748-2.489
		c-0.073-0.843-0.29-1.559-0.65-2.145c-0.36-0.588-0.865-1.051-1.513-1.389c-0.131-0.069-0.183-0.231-0.116-0.362L3.979,16.41
		l1.469-2.884c0.068-0.133,0.231-0.187,0.365-0.118l0.014,0.007c1.054,0.546,1.623-0.199,2.302-1.088
		c0.786-1.03,1.699-2.226,3.553-2.231c1.853,0.005,2.766,1.201,3.552,2.231c0.681,0.892,1.251,1.64,2.313,1.083
		c0.132-0.07,0.296-0.019,0.366,0.113l0.001,0.004l0.001-0.001l1.468,2.884C19.452,16.543,19.398,16.707,19.265,16.774"/>
	<polyline clip-path="url(#SVGID_3_)" fill="#1D95C6" points="14.628,16.92 14.625,16.918 14.628,16.92 	"/>
	<path clip-path="url(#SVGID_3_)" fill-rule="evenodd" clip-rule="evenodd" fill="#FFFFFF" d="M10.173,19.305
		c0.421-0.005,0.684-0.047,0.889-0.073c0.187-0.025,0.319-0.042,0.525-0.045c0.028,0,0.057-0.002,0.094-0.002
		c0.252,0,0.393,0.016,0.609,0.045c0.056,0.007,0.112,0.015,0.177,0.025c0.198,0.024,0.441,0.05,0.796,0.05h0.084
		c0.421-0.005,0.685-0.047,0.89-0.073c0.187-0.025,0.319-0.042,0.525-0.045c0.027,0,0.057-0.002,0.093-0.002
		c0.048,0,0.102-0.001,0.141-0.004c0.018-0.001,0.048-0.002,0.066-0.004c0.103-0.01,0.177-0.028,0.177-0.046
		c0-0.007-0.009-0.015-0.027-0.02c-0.018-0.007-0.047-0.013-0.084-0.018c-0.018-0.003-0.037-0.006-0.057-0.007
		c-0.019-0.001-0.037-0.004-0.066-0.006c-0.027,0-0.048-0.002-0.075-0.002c-0.027-0.002-0.047-0.002-0.075-0.002h-0.093
		c-0.469,0.006-0.805,0.045-1.03,0.074c-0.207,0.027-0.318,0.042-0.421,0.045c-0.019,0-0.028,0.001-0.037,0.001
		c-0.028,0-0.057-0.001-0.084-0.003c-0.057-0.003-0.132-0.01-0.216-0.023c-0.048-0.005-0.103-0.012-0.159-0.02
		c-0.234-0.032-0.6-0.074-1.123-0.074h-0.094c-0.468,0.006-0.805,0.045-1.03,0.074c-0.207,0.027-0.319,0.042-0.421,0.045
		c-0.018,0-0.027,0.001-0.037,0.001c-0.027,0-0.056-0.001-0.084-0.003C10,19.192,9.96,19.188,9.923,19.185
		c-0.074-0.006-0.159-0.019-0.281-0.034c-0.234-0.031-0.6-0.073-1.124-0.073H8.481c-0.196,0.002-0.374,0.029-0.356,0.057
		c-0.012,0.028,0.183,0.053,0.381,0.052c0.253,0,0.393,0.016,0.609,0.045c0.216,0.028,0.505,0.073,0.974,0.073H10.173z"/>
	<path clip-path="url(#SVGID_3_)" fill-rule="evenodd" clip-rule="evenodd" fill="#FFFFFF" d="M11.935,19.799
		c0.089,0.02,0.209,0.051,0.403,0.051s0.314-0.031,0.403-0.051c0.089-0.019,0.152-0.032,0.256-0.032
		c0.082,0,0.159-0.018,0.159-0.038S13.079,19.69,13,19.692c-0.217,0-0.368,0.029-0.465,0.051c-0.097,0.022-0.144,0.031-0.191,0.031
		c-0.046,0-0.096-0.009-0.193-0.031c-0.101-0.022-0.249-0.051-0.466-0.051c-0.216,0-0.368,0.029-0.465,0.051
		c-0.096,0.022-0.144,0.031-0.19,0.031s-0.097-0.009-0.194-0.031c-0.096-0.022-0.247-0.051-0.465-0.051
		c-0.082-0.002-0.158,0.016-0.158,0.037s0.076,0.038,0.158,0.038c0.105,0,0.163,0.012,0.252,0.032
		c0.089,0.02,0.209,0.051,0.404,0.051c0.193,0,0.313-0.031,0.403-0.051c0.089-0.019,0.147-0.032,0.252-0.032
		C11.787,19.767,11.844,19.779,11.935,19.799"/>
	<path clip-path="url(#SVGID_3_)" fill-rule="evenodd" clip-rule="evenodd" fill="#FFFFFF" d="M10.704,19.549
		c0.273-0.003,0.444-0.03,0.577-0.047c0.086-0.011,0.158-0.02,0.237-0.024c0.019-0.001,0.032-0.002,0.049-0.003
		c0.018,0,0.037,0,0.055-0.001c0.018,0,0.037-0.001,0.061-0.001c0.163,0,0.255,0.011,0.395,0.029
		c0.037,0.005,0.073,0.009,0.116,0.016c0.128,0.015,0.285,0.032,0.516,0.032h0.055c0.273-0.004,0.444-0.029,0.577-0.047
		c0.086-0.011,0.158-0.02,0.237-0.024c0.018,0,0.031-0.002,0.049-0.003c0.018-0.001,0.037-0.001,0.055-0.001s0.036-0.001,0.06-0.001
		c0.128,0,0.25-0.017,0.25-0.035c-0.001-0.018-0.122-0.036-0.257-0.036h-0.06c-0.304,0.004-0.523,0.029-0.669,0.047
		c-0.134,0.018-0.206,0.027-0.273,0.029c-0.012,0-0.018,0-0.024,0c-0.024,0-0.055,0-0.085-0.004
		c-0.055-0.004-0.122-0.012-0.213-0.025c-0.152-0.02-0.389-0.048-0.729-0.048h-0.061c-0.304,0.004-0.523,0.029-0.669,0.047
		c-0.134,0.017-0.206,0.027-0.273,0.029c-0.012,0-0.018,0.001-0.024,0.001c-0.024,0-0.054-0.002-0.085-0.005
		c-0.012-0.001-0.024-0.001-0.037-0.002c-0.049-0.004-0.103-0.012-0.183-0.022c-0.152-0.02-0.389-0.048-0.729-0.048
		c-0.128,0-0.249,0.017-0.249,0.036c0,0.019,0.121,0.035,0.249,0.035c0.164,0,0.255,0.011,0.395,0.029
		c0.141,0.019,0.328,0.047,0.633,0.047H10.704z"/>
	<path clip-path="url(#SVGID_3_)" fill-rule="evenodd" clip-rule="evenodd" fill="#FFFFFF" d="M11.463,15.019l-0.094,0.288
		c-0.004,0.012-0.003,0.027,0.006,0.04c0.015,0.02,0.043,0.024,0.063,0.01l0.245-0.179l0.241,0.177
		c0.012,0.01,0.028,0.013,0.043,0.008c0.023-0.007,0.036-0.033,0.029-0.056l-0.094-0.288l0.244-0.177
		c0.012-0.008,0.019-0.021,0.019-0.036c0-0.025-0.02-0.045-0.045-0.045l-0.302,0.001l-0.093-0.288
		c-0.004-0.013-0.015-0.025-0.029-0.029c-0.023-0.008-0.049,0.005-0.057,0.029l-0.092,0.288l-0.299-0.001
		c-0.015-0.001-0.03,0.005-0.04,0.018c-0.014,0.021-0.01,0.048,0.01,0.063L11.463,15.019z"/>
	<path clip-path="url(#SVGID_3_)" fill-rule="evenodd" clip-rule="evenodd" fill="#FFFFFF" d="M8.617,18.092l0.217,0.115
		c0.021-0.018,0.037-0.032,0.037-0.032c0.042-0.037,0.109-0.041,0.155-0.01l0.028-0.048c0.074-0.128,0.195-0.128,0.268,0
		c0,0,0.193-0.034,0.204-0.015c0.056-0.096,0.257-0.406,0.257-0.406c0.074-0.129,0.195-0.129,0.268,0l0.184,0.227l0.039-0.041
		c0.059-0.054,0.056-0.01,0.09,0.004l0.006-0.014c0.01-0.018,0.024-0.018,0.034,0l0.013,0.027c0.004-0.008,0.06-0.07,0.077-0.036
		l0.052,0.055l0.006-0.017c0.013-0.036,0.027,0.004,0.034,0.023c0.004-0.005,0.039-0.055,0.069-0.029
		c0.008,0.02,0.136,0.101,0.557,0.374l0.252,0.188c0.031-0.058,0.132-0.101,0.165-0.071c0,0,0.062,0.044,0.07,0.051
		c0.038-0.035,0.241-0.223,0.241-0.223c0.051-0.046,0.134-0.046,0.185,0l0.184,0.169c0.017,0.006,0.032,0.012,0.045,0.02
		c0,0,0.079,0.044,0.088,0.049c0.05-0.013,0.316-0.089,0.316-0.089c0.067-0.019,0.17-0.007,0.23,0.027l0.45,0.255l0.073,0.003
		l0.03-0.009c0.043-0.012,0.107-0.005,0.152,0.013c0.019-0.041,0.03-0.084,0.034-0.128c-0.099-0.074-0.105-0.164-0.146-0.198
		c-0.018-0.01-0.024-0.006-0.042,0c-0.007,0.002-0.013,0.004-0.02,0.004c-0.023,0.018-0.204,0.044-0.23,0.025
		c-0.023-0.017-0.032-0.047-0.022-0.07c-0.013-0.033,0.038-0.073,0.058-0.104c0.006-0.009,0.062-0.06,0.062-0.071
		c0.003-0.071,0.126-0.085,0.192-0.058c0.01,0.005,0.018,0.007,0.027-0.002c0.002-0.003,0.006-0.005,0.011-0.006
		c0.016-0.007,0.027-0.018,0.035-0.036c0.025-0.064,0.106-0.08,0.158-0.034c0.009,0.009,0.016,0.01,0.028,0.007
		c0.021-0.006,0.042-0.002,0.061,0.008c0.011,0.006,0.022,0.011,0.034,0.013c0.065,0.01,0.185,0.066,0.178,0.132
		c-0.003,0.019,0.018,0.078,0.034,0.09c0.041,0.029,0.066,0.049,0.048,0.095c0,0.002-0.04,0.06-0.04,0.063
		c0,0.025-0.077-0.008-0.1,0.001c-0.025,0.01-0.059,0.008-0.079-0.01l-0.005,0.001c-0.01,0.007-0.021,0.011-0.035,0.011
		c-0.032,0.033-0.072,0.053-0.118,0.056c-0.003,0.032-0.007,0.063-0.011,0.094c-0.001,0.01-0.003,0.021-0.006,0.031
		c-0.009,0.029,0,0.053,0.019,0.075c0.006,0.005,0.011,0.012,0.016,0.018l0.35-0.1c0.067-0.019,0.17-0.007,0.229,0.027
		c0,0,0.08,0.045,0.089,0.05c0.05-0.014,0.316-0.09,0.316-0.09c0.038-0.01,0.086-0.009,0.133-0.001
		c-0.01-0.059-0.057-0.107-0.119-0.113l-0.614-0.059l0.522-0.278c0.052-0.024,0.084-0.078,0.079-0.137
		c-0.008-0.076-0.076-0.131-0.151-0.123l-0.621,0.061l0.445-0.37c0.048-0.032,0.071-0.094,0.053-0.153
		c-0.022-0.073-0.098-0.114-0.171-0.092l-0.602,0.182l0.362-0.459c0.033-0.042,0.04-0.101,0.013-0.15
		c-0.036-0.067-0.119-0.092-0.186-0.057l-0.556,0.299l0.252-0.521c0.026-0.048,0.021-0.109-0.016-0.153
		c-0.048-0.058-0.136-0.066-0.194-0.017l-0.481,0.402l0.133-0.571c0.011-0.051-0.006-0.105-0.05-0.139
		c-0.06-0.047-0.146-0.036-0.192,0.023l-0.383,0.49l0.001-0.594c0-0.051-0.029-0.1-0.078-0.124
		c-0.069-0.032-0.151-0.003-0.183,0.065l-0.265,0.553l-0.133-0.586c-0.011-0.051-0.05-0.094-0.104-0.106
		c-0.074-0.017-0.148,0.031-0.164,0.104l-0.134,0.588l-0.262-0.55c-0.022-0.048-0.07-0.081-0.126-0.081
		c-0.076,0-0.137,0.061-0.137,0.137l0.001,0.594l-0.378-0.483c-0.031-0.045-0.087-0.069-0.144-0.056
		c-0.074,0.017-0.121,0.091-0.103,0.165l0.132,0.571l-0.481-0.402c-0.04-0.034-0.098-0.043-0.148-0.018
		C9.7,16.419,9.671,16.502,9.704,16.57l0.254,0.526L9.408,16.8c-0.048-0.028-0.109-0.025-0.155,0.01
		c-0.06,0.048-0.07,0.134-0.024,0.194l0.362,0.459L8.99,17.281v0.001c-0.051-0.016-0.109,0-0.146,0.044
		c-0.048,0.058-0.04,0.144,0.018,0.192l0.454,0.378l-0.62-0.061c-0.054-0.006-0.108,0.022-0.135,0.072
		C8.525,17.973,8.55,18.057,8.617,18.092 M10.334,16.99c0.088-0.016,0.203-0.032,0.283-0.028c0.089,0.005,0.185-0.002,0.27,0.008
		c0.133,0.015,0.127,0.012,0.234,0.102c0.092,0.078,0.361,0.279,0.461,0.219c0.071-0.042,0.045-0.166,0.184-0.194
		c0.077-0.015,0.057,0.036,0.131,0.018c0.058-0.014,0.112,0.015,0.081,0.069c-0.046,0.018-0.034-0.033-0.1,0.036
		c-0.037,0.039-0.043,0.039-0.023,0.098c0.032,0.092,0,0.079,0.162,0.115c0.145,0.032,0.269,0.004,0.43-0.002
		c0.066-0.002,0.125,0.061,0.176,0.103c0.057,0.048,0.112,0.078,0.168,0.123c0.056,0.044,0.11,0.09,0.163,0.135
		c0.032,0.026,0.144,0.152,0.156,0.158l0.007,0.016c-0.029,0.018-0.044,0-0.065-0.016c-0.011-0.001-0.008,0.015-0.053,0.002
		c-0.067-0.019-0.041-0.005-0.109-0.036c-0.024-0.011-0.036-0.001-0.057-0.01c-0.017-0.007-0.027-0.017-0.051-0.026
		c-0.018-0.007-0.037-0.015-0.054-0.02c-0.047-0.016-0.053-0.022-0.099-0.059c-0.226-0.183-0.162-0.128-0.45-0.106
		c-0.084,0.006-0.171,0.021-0.257,0.03c-0.04,0.003-0.087,0.005-0.128,0.012c-0.049,0.008-0.052,0.051-0.083,0.087
		c-0.05,0.056-0.153,0.115-0.175,0.177c-0.02,0.057,0.018,0.058-0.052,0.103c-0.049,0.03-0.045,0.055-0.078,0.09
		c-0.015,0-0.018-0.006-0.032-0.011c-0.027-0.008-0.009,0.001-0.036,0.01l-0.035-0.031l0.041-0.06l-0.038-0.058
		c0.012-0.028,0.046-0.06,0.064-0.103c0.032-0.082,0.018-0.154,0.031-0.243c0.008-0.049,0.013-0.078-0.035-0.125l-0.099-0.075
		c-0.018-0.011-0.026-0.008-0.053-0.028c-0.023-0.019-0.033-0.021-0.051-0.033c-0.052-0.037-0.147-0.127-0.195-0.152
		c-0.035-0.02-0.062-0.055-0.096-0.083c-0.021-0.016-0.086-0.025-0.116-0.031c-0.045-0.009-0.083,0.003-0.133,0.012
		c-0.01,0.003-0.123,0.005-0.128,0.003c-0.044-0.015-0.078-0.005-0.123-0.014c-0.032-0.007-0.183-0.073-0.219-0.094
		c-0.017-0.01-0.088-0.056-0.1-0.07C10.071,16.999,10.274,17,10.334,16.99"/>
	<path clip-path="url(#SVGID_3_)" fill-rule="evenodd" clip-rule="evenodd" fill="#FFFFFF" d="M10.358,18.07
		c0.001,0.002,0.005,0.004,0.009,0.004s0.008-0.001,0.01-0.003c0.02-0.018,0.041-0.035,0.061-0.054v0.001
		c0.002,0,0.004-0.001,0.006-0.001c0.007,0.01,0.015,0.005,0.022-0.003c0.014,0.009,0.029,0.019,0.042,0.028
		c0.002,0.001,0.005,0.002,0.008,0.003c0.002,0,0.005-0.001,0.008-0.002c0.007,0.008,0.016,0.008,0.024,0.005
		c0.001,0.001,0.001,0.003,0.002,0.005c0.001,0.001,0.003,0.002,0.006,0.002c0.002,0,0.004-0.001,0.005-0.002
		c0.014-0.015,0.027-0.03,0.04-0.045c0.001-0.001,0.003-0.001,0.006-0.002c0.001,0,0.003,0.001,0.005,0.002
		c0.009,0.008,0.017,0.015,0.026,0.024c0.001,0,0.003,0.001,0.004,0.001c0.002,0,0.003,0,0.005-0.001
		c0.013,0.017,0.027-0.009,0.041-0.025c-0.018-0.033-0.036-0.064-0.055-0.072c-0.023,0.016-0.041,0.035-0.055,0.055
		c-0.026-0.034-0.052-0.065-0.078-0.075c-0.018,0.01-0.028,0.022-0.042,0.032c-0.01-0.013-0.019-0.023-0.028-0.028
		c-0.019,0.013-0.032,0.028-0.044,0.043c-0.005-0.006-0.011-0.014-0.016-0.016c-0.012,0.007-0.018,0.017-0.027,0.026
		c-0.011-0.018-0.022-0.032-0.033-0.037c-0.044,0.029-0.066,0.069-0.089,0.108c0.002,0.003,0.004,0.006,0.006,0.01
		c0,0.001,0.002,0.002,0.005,0.002c0.002,0,0.005-0.001,0.006-0.002c0.013-0.015,0.026-0.03,0.04-0.045
		c0.001-0.001,0.003-0.001,0.004-0.002c0.002,0,0.004,0.001,0.006,0.002c0.004,0.004,0.009,0.008,0.014,0.013
		c-0.007,0.011-0.014,0.022-0.02,0.033c0.001,0.003,0.003,0.007,0.005,0.01c0.001,0.001,0.003,0.002,0.005,0.003
		c0.002,0,0.005-0.001,0.006-0.002c0.009-0.011,0.019-0.022,0.028-0.033c0.006,0.004,0.012,0.005,0.018,0
		c0.001,0.001,0.002,0.004,0.003,0.005c0.001,0.002,0.003,0.003,0.005,0.003c0.003,0,0.005,0,0.006-0.002s0.004-0.004,0.005-0.006
		c0.001,0.002,0.002,0.003,0.004,0.004c-0.006,0.007-0.012,0.014-0.018,0.021C10.352,18.062,10.355,18.066,10.358,18.07"/>
	<path clip-path="url(#SVGID_3_)" fill-rule="evenodd" clip-rule="evenodd" fill="#FFFFFF" d="M9.917,17.737
		c-0.096,0.064-0.143,0.152-0.193,0.238c0.004,0.006,0.008,0.014,0.011,0.02C9.738,18,9.742,18.001,9.747,18.002
		c0.005,0,0.01-0.002,0.013-0.005c0.029-0.033,0.058-0.066,0.087-0.099c0.003-0.002,0.007-0.004,0.011-0.004
		c0.005,0,0.009,0.001,0.011,0.004c0.02,0.017,0.039,0.035,0.058,0.052c0.003,0.001,0.006,0.003,0.01,0.003
		c0.003,0,0.008-0.001,0.01-0.002c0.03,0.038,0.06-0.02,0.09-0.057C9.997,17.826,9.957,17.755,9.917,17.737"/>
	<path clip-path="url(#SVGID_3_)" fill-rule="evenodd" clip-rule="evenodd" fill="#FFFFFF" d="M13.421,23.691
		c-0.027,0.082-0.114,0.126-0.196,0.099c-0.968-0.317-2.118-0.317-3.085,0c-0.082,0.025-0.17-0.017-0.197-0.099l-0.004-0.012
		c-0.246,0.066-0.475,0.149-0.694,0.241c0.009,0.015,0.016,0.031,0.024,0.046c0.016,0.012,0.034,0.033,0.056,0.065
		c0.026,0.029,0.042,0.055,0.052,0.082c0.023-0.093,0.076-0.144,0.148,0.02c0.01,0.021,0.017,0.04,0.022,0.059
		c0.029-0.032,0.072-0.022,0.114,0.073c0.014,0.032,0.011,0.218-0.009,0.31c0.025,0.033,0.05,0.066,0.076,0.098l0.014,0.009
		c0.003,0.003,0.007,0.005,0.01,0.009c-0.026-0.115,0.017-0.22,0.118-0.067c0.025,0.028,0.042,0.055,0.052,0.082
		c0.023-0.093,0.076-0.144,0.149,0.02c0.009,0.02,0.016,0.039,0.022,0.058c0.028-0.031,0.071-0.021,0.113,0.075
		c0.015,0.032,0.011,0.23-0.011,0.318c0.017,0.015,0.034,0.031,0.051,0.046c0.018,0.003,0.04,0.009,0.066,0.017
		c0.004,0.002,0.008,0.004,0.012,0.006c-0.054-0.105-0.037-0.217,0.098-0.093c0.032,0.022,0.054,0.044,0.072,0.067
		c-0.001-0.097,0.037-0.158,0.148-0.017c0.013,0.018,0.025,0.035,0.035,0.051c0.02-0.037,0.064-0.037,0.129,0.045
		c0.027,0.035,0.09,0.33,0.058,0.357l0.002,0.05c0.017,0.002,0.037,0.006,0.061,0.011c0.004,0.002,0.009,0.003,0.013,0.005
		c-0.064-0.099-0.058-0.213,0.088-0.102c0.034,0.017,0.059,0.037,0.078,0.06c-0.011-0.097,0.022-0.162,0.146-0.032
		c0.015,0.016,0.028,0.032,0.039,0.048c0.017-0.04,0.061-0.045,0.133,0.032c0.031,0.032,0.122,0.32,0.092,0.349
		c-0.049,0.021,0.062,0.068,0.166,0.124c0.059-0.032,0.116-0.065,0.173-0.096l-0.007-0.028c-0.03-0.029,0.061-0.317,0.092-0.349
		c0.073-0.077,0.116-0.072,0.132-0.032c0.012-0.016,0.025-0.032,0.04-0.048c0.124-0.13,0.156-0.065,0.146,0.032
		c0.019-0.023,0.044-0.043,0.078-0.06c0.146-0.111,0.152,0.003,0.088,0.102c0.004-0.002,0.009-0.003,0.013-0.005
		c0.023-0.005,0.044-0.009,0.061-0.011c0,0,0.003-0.022,0.003-0.05c-0.033-0.027,0.03-0.322,0.057-0.357
		c0.065-0.082,0.109-0.082,0.129-0.045c0.01-0.016,0.021-0.033,0.035-0.051c0.111-0.141,0.15-0.08,0.149,0.017
		c0.016-0.023,0.039-0.045,0.071-0.067c0.135-0.124,0.151-0.012,0.098,0.093c0.004-0.002,0.008-0.004,0.012-0.006
		c0.026-0.008,0.048-0.014,0.066-0.017c0.017-0.015,0.034-0.031,0.051-0.046c-0.022-0.088-0.026-0.286-0.011-0.318
		c0.043-0.096,0.085-0.106,0.114-0.075c0.005-0.019,0.012-0.038,0.021-0.058c0.073-0.164,0.126-0.113,0.149-0.02
		c0.01-0.027,0.026-0.054,0.052-0.082c0.101-0.153,0.144-0.048,0.118,0.067c0.003-0.004,0.006-0.006,0.01-0.009l0.014-0.009
		c0.026-0.032,0.051-0.065,0.076-0.098c-0.02-0.092-0.024-0.278-0.01-0.31c0.044-0.095,0.086-0.105,0.115-0.073
		c0.005-0.019,0.012-0.038,0.021-0.059c0.073-0.164,0.125-0.113,0.148-0.02c0.011-0.027,0.028-0.053,0.053-0.082
		c0.022-0.032,0.04-0.053,0.056-0.065c0.008-0.015,0.015-0.031,0.023-0.046c-0.218-0.092-0.447-0.175-0.693-0.241L13.421,23.691z
		 M12.146,24.335l-0.244,0.177l0.093,0.288c0.008,0.023-0.005,0.049-0.029,0.056c-0.015,0.005-0.031,0.001-0.043-0.008l-0.241-0.176
		l-0.244,0.178c-0.02,0.015-0.048,0.01-0.063-0.01c-0.009-0.012-0.01-0.027-0.006-0.04l0.094-0.288l-0.245-0.177
		c-0.02-0.015-0.025-0.043-0.01-0.063c0.009-0.013,0.024-0.02,0.039-0.018l0.3,0.001l0.092-0.288
		c0.008-0.024,0.033-0.037,0.057-0.029c0.014,0.005,0.025,0.016,0.029,0.029l0.093,0.288l0.302-0.001
		c0.024,0,0.045,0.02,0.045,0.045C12.165,24.314,12.157,24.327,12.146,24.335"/>
	<path clip-path="url(#SVGID_3_)" fill-rule="evenodd" clip-rule="evenodd" fill="#FFFFFF" d="M14.777,23.44
		c-0.024-0.015-0.05-0.03-0.076-0.045c-0.155-0.089-0.343-0.178-0.531-0.256c-0.015-0.007-0.03-0.012-0.045-0.019
		c-0.066-0.026-0.129-0.052-0.192-0.075c-0.02-0.008-0.039-0.014-0.058-0.022c-0.056-0.02-0.107-0.037-0.156-0.053
		c-0.017-0.006-0.036-0.012-0.052-0.017c-0.06-0.018-0.114-0.033-0.154-0.042l-0.057,0.171c-0.48-0.156-1.275-0.299-1.774-0.299
		c-0.502,0-1.303,0.137-1.782,0.293l-0.055-0.165c-0.04,0.009-0.094,0.024-0.153,0.042c-0.017,0.005-0.035,0.011-0.052,0.017
		c-0.049,0.016-0.1,0.033-0.157,0.053c-0.018,0.007-0.036,0.013-0.056,0.021C9.365,23.067,9.3,23.092,9.233,23.12
		c-0.014,0.006-0.027,0.011-0.041,0.017c-0.187,0.077-0.374,0.166-0.528,0.254c-0.03,0.017-0.058,0.034-0.085,0.05
		c-0.017,0.011-0.034,0.022-0.049,0.032c-0.043,0.029-0.082,0.057-0.113,0.084l0.142,0.209c0.045-0.034,0.104-0.07,0.17-0.106
		c0.008-0.005,0.018-0.009,0.026-0.014c0.065-0.034,0.136-0.068,0.211-0.102c0.029-0.013,0.056-0.026,0.086-0.037
		c0.078-0.033,0.158-0.064,0.238-0.094c0.023-0.008,0.045-0.016,0.068-0.024c0.056-0.021,0.111-0.04,0.165-0.058
		c0.024-0.007,0.048-0.016,0.072-0.023c0.051-0.016,0.098-0.03,0.143-0.043c0.019-0.006,0.039-0.012,0.056-0.016
		c0.059-0.016,0.112-0.03,0.152-0.038l-0.035-0.102l0.035,0.102l0.045,0.136c0.457-0.121,1.22-0.25,1.691-0.25
		c0.47,0,1.232,0.132,1.689,0.253l0.046-0.137c0.004,0,0.009,0.001,0.013,0.002c0.037,0.008,0.084,0.02,0.136,0.034
		c0.02,0.006,0.043,0.013,0.064,0.019c0.042,0.012,0.085,0.025,0.132,0.04c0.027,0.009,0.055,0.017,0.083,0.027
		c0.048,0.016,0.098,0.033,0.148,0.051c0.028,0.01,0.055,0.019,0.083,0.03c0.077,0.028,0.156,0.059,0.231,0.091
		c0.032,0.013,0.06,0.026,0.09,0.04c0.073,0.033,0.141,0.065,0.205,0.099c0.009,0.005,0.02,0.01,0.03,0.016
		c0.065,0.035,0.123,0.07,0.167,0.104l0.141-0.209c-0.029-0.026-0.068-0.054-0.11-0.083C14.813,23.463,14.796,23.451,14.777,23.44"
		/>
	<path clip-path="url(#SVGID_3_)" fill-rule="evenodd" clip-rule="evenodd" fill="#FFFFFF" d="M11.683,13.529
		c-2.568,0-4.657,3.097-4.657,6.904c0,3.806,2.089,6.903,4.657,6.903c2.567,0,4.656-3.097,4.656-6.903
		C16.338,16.626,14.25,13.529,11.683,13.529 M11.683,13.802c2.153,0,3.941,2.352,4.31,5.449c-1.141,0.009-3.172,0.931-4.354,0.931
		c-1.154,0-3.113-0.875-4.267-0.928C7.739,16.155,9.527,13.802,11.683,13.802 M14.333,21.019c0.008,0.023-0.006,0.048-0.029,0.056
		c-0.015,0.005-0.031,0.002-0.043-0.008l-0.242-0.177l-0.244,0.179c-0.02,0.014-0.048,0.01-0.063-0.01
		c-0.008-0.012-0.01-0.027-0.006-0.04l0.095-0.288l-0.246-0.177c-0.02-0.014-0.024-0.043-0.01-0.063
		c0.01-0.013,0.025-0.019,0.04-0.019l0.299,0.002l0.093-0.288c0.007-0.024,0.033-0.037,0.056-0.029
		c0.015,0.005,0.025,0.016,0.029,0.029l0.093,0.288l0.302-0.002c0.025,0,0.045,0.021,0.045,0.046c0,0.015-0.007,0.028-0.018,0.036
		l-0.245,0.177L14.333,21.019z M9.658,21.019c0.008,0.023-0.005,0.048-0.029,0.056c-0.015,0.005-0.031,0.002-0.042-0.008
		L9.345,20.89l-0.244,0.179c-0.021,0.014-0.048,0.01-0.063-0.01c-0.009-0.012-0.011-0.027-0.006-0.04l0.094-0.288l-0.245-0.177
		c-0.021-0.014-0.025-0.043-0.01-0.063c0.009-0.013,0.024-0.019,0.039-0.019l0.299,0.002l0.093-0.288
		c0.008-0.024,0.033-0.037,0.057-0.029c0.014,0.005,0.024,0.016,0.028,0.029h0.001l0.092,0.288l0.303-0.002
		c0.024,0,0.044,0.021,0.044,0.046c0,0.015-0.007,0.028-0.018,0.036l-0.245,0.177L9.658,21.019z M15.206,23.452l-0.426,0.633
		c-0.03,0.045-0.079,0.069-0.13,0.069c-0.026,0-0.052-0.006-0.076-0.02c-0.117-0.065-0.246-0.119-0.374-0.176
		c-0.012,0.023-0.023,0.046-0.035,0.07c0,0.021-0.002,0.045-0.008,0.071c0.004-0.004,0.007-0.007,0.011-0.01
		c0.215-0.135,0.175,0.04,0.085,0.154c-0.018,0.014-0.036,0.031-0.058,0.049c0.23-0.007,0.128,0.137-0.01,0.19
		c-0.007,0-0.013,0-0.02,0.002c-0.009,0.077-0.221,0.198-0.353,0.139l-0.041,0.022c0.026,0.032-0.009,0.123-0.063,0.191
		c-0.017,0.014-0.036,0.031-0.057,0.049c0.23-0.007,0.128,0.137-0.012,0.189c-0.006,0-0.013,0.002-0.019,0.002
		c-0.009,0.079-0.221,0.199-0.353,0.14l-0.058,0.046c-0.004,0.041-0.053,0.104-0.111,0.149c-0.021,0.009-0.043,0.021-0.067,0.033
		c0.224,0.049,0.09,0.164-0.058,0.181c-0.006-0.001-0.012-0.002-0.019-0.002c-0.022,0.059-0.18,0.113-0.299,0.084
		c-0.021,0.015-0.042,0.03-0.064,0.045c-0.007,0.04-0.062,0.099-0.125,0.139c-0.021,0.007-0.044,0.017-0.07,0.026
		c0.219,0.071,0.074,0.173-0.075,0.175c-0.006-0.002-0.012-0.003-0.019-0.004c-0.029,0.059-0.205,0.099-0.322,0.048
		c-0.066,0.039-0.134,0.077-0.204,0.115c0.09,0.048,0.182,0.096,0.277,0.144c0.022,0.012,0.031,0.038,0.02,0.06
		c-0.011,0.023-0.038,0.031-0.06,0.02c-0.114-0.058-0.224-0.115-0.33-0.173c-0.107,0.058-0.217,0.115-0.331,0.173
		c-0.022,0.011-0.048,0.003-0.06-0.02c-0.011-0.022-0.002-0.048,0.02-0.06c0.095-0.048,0.187-0.096,0.277-0.144
		c-0.07-0.038-0.137-0.076-0.203-0.115c-0.118,0.051-0.294,0.011-0.323-0.048c-0.007,0.001-0.013,0.002-0.019,0.004
		c-0.149-0.002-0.294-0.104-0.075-0.175c-0.025-0.009-0.048-0.019-0.07-0.026c-0.062-0.04-0.118-0.099-0.125-0.139
		c-0.021-0.015-0.042-0.03-0.063-0.045c-0.12,0.029-0.278-0.025-0.299-0.084c-0.007,0-0.014,0.001-0.02,0.002
		c-0.148-0.017-0.282-0.132-0.057-0.181c-0.024-0.012-0.047-0.024-0.068-0.033c-0.057-0.045-0.106-0.108-0.111-0.149l-0.058-0.046
		c-0.132,0.059-0.344-0.061-0.353-0.14c-0.006,0-0.013-0.002-0.019-0.002c-0.139-0.052-0.241-0.196-0.012-0.189
		c-0.021-0.018-0.039-0.035-0.057-0.049c-0.054-0.068-0.089-0.159-0.063-0.191L9.567,24.61C9.479,24.69,9.21,24.583,9.2,24.484
		c-0.007-0.002-0.014-0.002-0.02-0.002c-0.14-0.053-0.241-0.197-0.011-0.19c-0.022-0.018-0.04-0.035-0.058-0.049
		c-0.089-0.114-0.129-0.289,0.085-0.154c0.004,0.003,0.007,0.006,0.011,0.01c-0.006-0.026-0.008-0.05-0.007-0.071
		c-0.013-0.024-0.024-0.047-0.036-0.07c-0.128,0.056-0.257,0.111-0.374,0.176c-0.071,0.041-0.16,0.019-0.206-0.049l-0.426-0.633
		c-0.047-0.069-0.031-0.162,0.035-0.213c0.163-0.122,0.346-0.231,0.538-0.333c-0.009-0.028-0.017-0.053-0.027-0.082l-0.043-0.007
		c-0.145-0.001-0.289-0.198-0.265-0.272c-0.006-0.004-0.011-0.008-0.016-0.01c-0.106-0.105-0.14-0.279,0.067-0.177
		c-0.012-0.026-0.022-0.049-0.032-0.069c-0.03-0.119-0.009-0.265,0.085-0.175l-0.017-0.067c-0.139-0.014-0.272-0.199-0.249-0.271
		c-0.005-0.004-0.011-0.007-0.017-0.01c-0.105-0.106-0.138-0.279,0.068-0.178c-0.012-0.024-0.022-0.048-0.032-0.068
		c-0.035-0.141,0-0.316,0.141-0.105c0.002,0.004,0.004,0.008,0.006,0.013c0.023-0.116,0.105-0.194,0.134-0.013
		c0.013,0.036,0.016,0.068,0.015,0.097c0.059-0.077,0.127-0.101,0.126,0.079c0,0.022-0.001,0.042-0.004,0.062
		c0.039-0.017,0.074,0.01,0.073,0.115c0,0.04-0.109,0.265-0.162,0.308l0.01,0.038c0.034-0.056,0.083-0.061,0.105,0.07
		c0.011,0.036,0.015,0.068,0.013,0.097c0.06-0.076,0.128-0.101,0.128,0.079c0,0.022-0.002,0.043-0.005,0.062
		c0.039-0.017,0.074,0.01,0.074,0.115c0,0.031-0.066,0.171-0.119,0.254c0.008,0.026,0.017,0.051,0.025,0.076
		c0.448-0.226,0.961-0.402,1.528-0.509c0.074-0.014,0.147,0.027,0.174,0.097c0.751-0.167,1.582-0.167,2.333,0
		c0.027-0.07,0.101-0.111,0.174-0.097c0.567,0.107,1.08,0.283,1.528,0.51c0.009-0.026,0.017-0.051,0.026-0.077
		c-0.054-0.083-0.12-0.223-0.12-0.254c0-0.105,0.035-0.132,0.074-0.115c-0.003-0.019-0.005-0.04-0.005-0.062
		c-0.001-0.18,0.068-0.155,0.127-0.079c-0.001-0.029,0.003-0.061,0.015-0.097c0.021-0.131,0.07-0.126,0.104-0.07l0.01-0.038
		c-0.053-0.043-0.162-0.268-0.162-0.308c-0.001-0.105,0.034-0.132,0.074-0.115c-0.004-0.02-0.005-0.04-0.005-0.062
		c-0.001-0.18,0.067-0.156,0.127-0.079c-0.002-0.029,0.002-0.061,0.014-0.097c0.029-0.181,0.111-0.103,0.134,0.013
		c0.002-0.005,0.004-0.009,0.006-0.013c0.141-0.211,0.176-0.036,0.142,0.105c-0.011,0.02-0.021,0.044-0.033,0.068
		c0.207-0.101,0.173,0.072,0.068,0.178c-0.006,0.003-0.011,0.006-0.017,0.01c0.024,0.072-0.109,0.257-0.249,0.271l-0.016,0.067
		c0.092-0.09,0.114,0.056,0.085,0.175c-0.011,0.02-0.021,0.043-0.033,0.069c0.207-0.102,0.173,0.072,0.068,0.177
		c-0.006,0.002-0.011,0.006-0.017,0.01c0.024,0.074-0.12,0.271-0.264,0.272c-0.034,0.002-0.05,0.034-0.052,0.032
		c-0.006,0.02-0.013,0.037-0.019,0.057c0.192,0.103,0.375,0.212,0.538,0.333C15.237,23.29,15.252,23.383,15.206,23.452"/>
	<path clip-path="url(#SVGID_3_)" fill-rule="evenodd" clip-rule="evenodd" fill="#FFFFFF" d="M8.399,21.745
		c0.006,0.011,0.011,0.022,0.017,0.033L8.41,21.754C8.406,21.751,8.403,21.748,8.399,21.745"/>
</g>
</svg>
