<svg id="Capa_1" data-name="Capa 1" xmlns="http://www.w3.org/2000/svg" xmlns:xlink="http://www.w3.org/1999/xlink" viewBox="0 0 407 88.63"><defs><style>.cls-1{fill:#3c3c3c;}.cls-2{fill:url(#Degradado_sin_nombre_2);}.cls-3{fill:none;}.cls-4{fill:url(#Degradado_sin_nombre_7);}.cls-5{fill:url(#Degradado_sin_nombre_4);}.cls-6{fill:url(#linear-gradient);}.cls-7{fill:url(#Degradado_sin_nombre_28);}.cls-8{fill:url(#Degradado_sin_nombre_28-2);}.cls-9{fill:url(#Degradado_sin_nombre_10);}</style><linearGradient id="Degradado_sin_nombre_2" x1="-490.78" y1="1217.25" x2="-489.29" y2="1217.25" gradientTransform="matrix(5.29, 0.74, 0.74, -5.29, 1790, 6818.55)" gradientUnits="userSpaceOnUse"><stop offset="0" stop-color="#568dc0"/><stop offset="1" stop-color="#111684"/></linearGradient><linearGradient id="Degradado_sin_nombre_7" x1="-500.92" y1="1156.62" x2="-499.59" y2="1156.62" gradientTransform="matrix(7.99, 0, 0, -7.99, 4006.74, 9277.76)" gradientUnits="userSpaceOnUse"><stop offset="0" stop-color="#5bb396"/><stop offset="0.21" stop-color="#55ac92"/><stop offset="0.35" stop-color="#50a58c"/><stop offset="0.56" stop-color="#44907a"/><stop offset="0.8" stop-color="#2f6f5e"/><stop offset="1" stop-color="#1b4f43"/></linearGradient><linearGradient id="Degradado_sin_nombre_4" x1="-549.56" y1="1069.17" x2="-548.13" y2="1069.17" gradientTransform="matrix(69.54, 9.75, 9.75, -69.54, 27810.5, 79717.15)" gradientUnits="userSpaceOnUse"><stop offset="0" stop-color="#5bb396"/><stop offset="0.21" stop-color="#55ac92"/><stop offset="0.23" stop-color="#53a88f"/><stop offset="0.37" stop-color="#3f8873"/><stop offset="0.51" stop-color="#2f6f5e"/><stop offset="0.66" stop-color="#245d4f"/><stop offset="0.82" stop-color="#1d5246"/><stop offset="1" stop-color="#1b4f43"/></linearGradient><linearGradient id="linear-gradient" x1="-40.57" y1="34.66" x2="131.5" y2="34.66" gradientUnits="userSpaceOnUse"><stop offset="0" stop-color="#5bb396"/><stop offset="0.48" stop-color="#55ac92"/><stop offset="0.52" stop-color="#50a58c"/><stop offset="0.84" stop-color="#2a6757"/><stop offset="1" stop-color="#1b4f43"/></linearGradient><linearGradient id="Degradado_sin_nombre_28" x1="-549.56" y1="1069.13" x2="-548.13" y2="1069.13" gradientTransform="matrix(69.54, 9.75, 9.75, -69.54, 27809.75, 79722.68)" gradientUnits="userSpaceOnUse"><stop offset="0" stop-color="#e5025d"/><stop offset="1" stop-color="#87015d"/></linearGradient><linearGradient id="Degradado_sin_nombre_28-2" x1="-549.56" y1="1068.99" x2="-548.13" y2="1068.99" gradientTransform="matrix(69.54, 9.75, 9.75, -69.54, 27806.5, 79745.68)" xlink:href="#Degradado_sin_nombre_28"/><linearGradient id="Degradado_sin_nombre_10" x1="-549.56" y1="1069" x2="-548.12" y2="1069" gradientTransform="matrix(69.54, 9.75, 9.75, -69.54, 27806.88, 79742.8)" gradientUnits="userSpaceOnUse"><stop offset="0" stop-color="#73c3dc"/><stop offset="1" stop-color="#293b98"/></linearGradient></defs><title>Mesa de trabajo 5</title><path class="cls-1" d="M192.08,12.18V53l8.24,7.1a1,1,0,0,0,1.59-.73V19.19a7,7,0,0,0-7-7Z"/><path class="cls-1" d="M187,35.94,158.59,11.42V60.26h3.11a6.69,6.69,0,0,0,6.69-6.69V32.46c.56.56,1.15,1.1,1.74,1.62L187,48.6Z"/><path class="cls-1" d="M125.08,12.18V60.26h28.19V50.65h-17.8V21.46h11.66a6.14,6.14,0,0,0,6.14-6.14V12.18Z"/><path class="cls-1" d="M140.57,40.28h12.7V32.17h-8.62a4.08,4.08,0,0,0-4.08,4.08Z"/><path class="cls-1" d="M269.07,56.42A11.44,11.44,0,0,0,265.52,48q-.34-.31-.66-.66a15.13,15.13,0,0,1-4.08-11c0-4.65,1.37-8.31,4.19-11.19a14.44,14.44,0,0,1,10.91-4.28,18.75,18.75,0,0,1,6.72,1.22,21.15,21.15,0,0,1,6.12,3.7l2.36,2,.61-11.33L291,16a28.22,28.22,0,0,0-7.38-3.69,26.33,26.33,0,0,0-8-1.23,27,27,0,0,0-9.94,1.81A24.57,24.57,0,0,0,252,26.44a27,27,0,0,0,0,19.78,24,24,0,0,0,13.63,13.45,26.08,26.08,0,0,0,3.48,1.06Z"/><path class="cls-1" d="M344.54,26.67A25.31,25.31,0,0,0,339,18.46a22.94,22.94,0,0,0-2-1.75c-2.6-2-6,.31-6,3.27v5c.15.14.31.28.45.43a15.37,15.37,0,0,1,3.26,5,15.67,15.67,0,0,1,1.13,5.91,15.36,15.36,0,0,1-4.38,10.82,15.08,15.08,0,0,1-4.84,3.32,14.38,14.38,0,0,1-5.66,1.14,14.48,14.48,0,0,1-10.55-4.46,15.26,15.26,0,0,1-3.24-4.95A15.62,15.62,0,0,1,306,36.32a16,16,0,0,1,1.12-5.95,14.89,14.89,0,0,1,3.24-4.94A14.55,14.55,0,0,1,320.88,21h0A4.94,4.94,0,0,0,325.83,16V11.85a.26.26,0,0,0-.22-.26,26.76,26.76,0,0,0-4.73-.42A26.26,26.26,0,0,0,311.06,13a25.48,25.48,0,0,0-8.31,5.43,24.76,24.76,0,0,0-5.57,8.16,25.66,25.66,0,0,0,0,19.38,24.52,24.52,0,0,0,5.57,8.09A25.51,25.51,0,0,0,311,59.55a26,26,0,0,0,9.85,1.91,25.67,25.67,0,0,0,9.74-1.9A26.34,26.34,0,0,0,339,54.11a25,25,0,0,0,5.59-27.44"/><path class="cls-1" d="M228.68,11.11,204.48,60.26h11.08l13-27.35.23-.57L229,33l3.64,7.67h0a3.43,3.43,0,0,0-3.1,2l-3.15,6.69h10.2l5.11,11h3.65a4.65,4.65,0,0,0,4.17-6.7Z"/><path class="cls-1" d="M382.63,35.82a1.71,1.71,0,0,0-3.2-.39l-2.89,5.88c-.12.26-.3.63-.54,1.11s-.43.88-.63,1.29l-.11-.25c-.44-1-.75-1.71-1-2.16L359.12,11.13,347.06,60.53H357L362,38.83l.08-.34.09.17,13.14,22.8,9.39-15.93Z"/><path class="cls-1" d="M391.4,11.11l-4.53,9.22a10.51,10.51,0,0,0-.81,7l7.72,33.17h10Z"/><path class="cls-1" d="M288.65,46.28a22.74,22.74,0,0,1-6.49,4,18.78,18.78,0,0,1-1.82.59l.17,0a8.06,8.06,0,0,0-1.18.37h0l-.12,0-.3.15a8.35,8.35,0,0,0-.88.48l-.44.29a8.09,8.09,0,0,0-.88.73c-.16.15-.3.32-.45.48s-.27.32-.4.49a7.86,7.86,0,0,0-1.22,7.57l1,0a27.72,27.72,0,0,0,8-1.11,23.18,23.18,0,0,0,6.63-3.23l.25-.16.64-.46V44.1Z"/><path class="cls-1" d="M125.05,75.92V68.15h5v.92h-3.9V75h4v.92Zm.68-3.52v-.92h3.8v.92Z"/><path class="cls-1" d="M134.24,75.92V68.15h1.13l4.22,6.44h-.23V68.15h1v7.76h-1.13l-4.22-6.44h.23v6.44Z"/><path class="cls-1" d="M146.77,75.92V69.1h-2.54v-1h6.2v1h-2.54v6.81Z"/><path class="cls-1" d="M154.26,75.92V68.15h5v.92h-3.9V75h4v.92Zm.68-3.52v-.92h3.8v.92Z"/><path class="cls-1" d="M169,75.92V68.15h1.13l4.22,6.44h-.23V68.15h1v7.76H174l-4.22-6.44H170v6.44Z"/><path class="cls-1" d="M179,75.92l2.7-7.76h1.59l2.7,7.76h-1.11l-2.47-7.26h.15l-2.47,7.26Zm1.55-2.38.25-.91h3.39l.25.91Z"/><path class="cls-1" d="M193.1,76a5,5,0,0,1-1.53-.22,2.89,2.89,0,0,1-1.16-.69,3,3,0,0,1-.73-1.23,5.82,5.82,0,0,1-.25-1.83,5,5,0,0,1,.45-2.27,2.85,2.85,0,0,1,1.29-1.31,4.48,4.48,0,0,1,2-.42,6.89,6.89,0,0,1,.86.05,5.91,5.91,0,0,1,.81.16v.94a6,6,0,0,0-.8-.16,6.28,6.28,0,0,0-.82-.05,3.24,3.24,0,0,0-1.46.3,1.92,1.92,0,0,0-.89,1,4.31,4.31,0,0,0-.31,1.77,4.39,4.39,0,0,0,.31,1.81,1.91,1.91,0,0,0,.89.95,3.15,3.15,0,0,0,1.41.29A5.07,5.07,0,0,0,194,75a5.66,5.66,0,0,0,.85-.21v.94a5.06,5.06,0,0,1-.83.2A5.64,5.64,0,0,1,193.1,76Z"/><path class="cls-1" d="M198.84,75.92V68.15H200v7.76Z"/><path class="cls-1" d="M207.58,76a3.59,3.59,0,0,1-1.76-.42,2.78,2.78,0,0,1-1.17-1.3,6.35,6.35,0,0,1,0-4.53,2.8,2.8,0,0,1,1.17-1.3,3.93,3.93,0,0,1,3.53,0,2.81,2.81,0,0,1,1.17,1.3,6.34,6.34,0,0,1,0,4.53,2.82,2.82,0,0,1-1.17,1.3A3.57,3.57,0,0,1,207.58,76Zm0-.93a2.24,2.24,0,0,0,1.17-.3,1.9,1.9,0,0,0,.77-1,4.76,4.76,0,0,0,.27-1.77,4.94,4.94,0,0,0-.27-1.81,1.94,1.94,0,0,0-.77-1,2.23,2.23,0,0,0-1.17-.3,2.25,2.25,0,0,0-1.17.29,1.91,1.91,0,0,0-.77,1,4.75,4.75,0,0,0-.27,1.77,5,5,0,0,0,.27,1.81,1.91,1.91,0,0,0,.77,1A2.23,2.23,0,0,0,207.58,75.09Z"/><path class="cls-1" d="M215.21,75.92V68.15h1.13l4.22,6.44h-.23V68.15h1v7.76h-1.13L216,69.47h.23v6.44Z"/><path class="cls-1" d="M225.26,75.92l2.7-7.76h1.59l2.7,7.76h-1.11l-2.47-7.26h.15l-2.46,7.26Zm1.55-2.38.25-.91h3.39l.25.91Z"/><path class="cls-1" d="M236.14,75.92V68.15h1.11V75H241v.95Z"/><path class="cls-1" d="M252.25,76h-.61l-.64,0-.68-.07V68.29l.69-.12.74-.08.73,0a4.16,4.16,0,0,1,3,1,4,4,0,0,1,1,3,4.71,4.71,0,0,1-.47,2.25,2.87,2.87,0,0,1-1.41,1.29A5.85,5.85,0,0,1,252.25,76Zm.25-.93a3.6,3.6,0,0,0,1.58-.31,2,2,0,0,0,.94-1,4.11,4.11,0,0,0,.31-1.75,4.17,4.17,0,0,0-.31-1.74,2,2,0,0,0-.93-1,3.44,3.44,0,0,0-1.55-.31L252,69l-.56.07V75l.51,0Z"/><path class="cls-1" d="M260.76,75.92V68.15h5v.92h-3.9V75h4v.92Zm.68-3.52v-.92h3.8v.92Z"/><path class="cls-1" d="M278.83,76a5,5,0,0,1-1.53-.22,2.89,2.89,0,0,1-1.16-.69,3,3,0,0,1-.73-1.23,5.79,5.79,0,0,1-.25-1.83,5,5,0,0,1,.45-2.27,2.85,2.85,0,0,1,1.29-1.31,4.48,4.48,0,0,1,2-.42,6.89,6.89,0,0,1,.86.05,5.92,5.92,0,0,1,.81.16v.94a6,6,0,0,0-.8-.16A6.27,6.27,0,0,0,279,69a3.24,3.24,0,0,0-1.46.3,1.93,1.93,0,0,0-.89,1,4.31,4.31,0,0,0-.3,1.77,4.38,4.38,0,0,0,.31,1.81,1.91,1.91,0,0,0,.89.95,3.15,3.15,0,0,0,1.41.29,5.09,5.09,0,0,0,.82-.07,5.67,5.67,0,0,0,.85-.21v.94a5.08,5.08,0,0,1-.83.2A5.67,5.67,0,0,1,278.83,76Z"/><path class="cls-1" d="M287.45,76a3.59,3.59,0,0,1-1.76-.42,2.79,2.79,0,0,1-1.17-1.3,6.35,6.35,0,0,1,0-4.53,2.8,2.8,0,0,1,1.17-1.3,3.92,3.92,0,0,1,3.53,0,2.81,2.81,0,0,1,1.17,1.3,6.33,6.33,0,0,1,0,4.53,2.81,2.81,0,0,1-1.18,1.3A3.56,3.56,0,0,1,287.45,76Zm0-.93a2.24,2.24,0,0,0,1.17-.3,1.9,1.9,0,0,0,.77-1,4.78,4.78,0,0,0,.27-1.77,5,5,0,0,0-.27-1.81,1.93,1.93,0,0,0-.77-1,2.22,2.22,0,0,0-1.17-.3,2.25,2.25,0,0,0-1.17.29,1.91,1.91,0,0,0-.77,1,4.73,4.73,0,0,0-.27,1.77,4.94,4.94,0,0,0,.27,1.81,1.91,1.91,0,0,0,.77,1A2.23,2.23,0,0,0,287.45,75.09Z"/><path class="cls-1" d="M295.1,75.92V68.15h1.34l2.64,5.75h-.19l2.6-5.75h1.34v7.76h-1V69.12h.27l-2.61,5.7h-1l-2.65-5.7h.31v6.79Z"/><path class="cls-1" d="M310.4,76a3.74,3.74,0,0,1-1.7-.34,2.11,2.11,0,0,1-1-1,4.23,4.23,0,0,1-.32-1.76V68.15h1.11V73a2.26,2.26,0,0,0,.46,1.57,2.31,2.31,0,0,0,2.86,0,2.27,2.27,0,0,0,.46-1.57V68.15h1.09v4.74a4.26,4.26,0,0,1-.32,1.76,2.1,2.1,0,0,1-1,1A3.68,3.68,0,0,1,310.4,76Z"/><path class="cls-1" d="M317.92,75.92V68.15h1.13l4.22,6.44H323V68.15h1v7.76H323l-4.22-6.44H319v6.44Z"/><path class="cls-1" d="M328.67,75.92V68.15h1.11v7.76Z"/><path class="cls-1" d="M337.74,76a5,5,0,0,1-1.53-.22,2.89,2.89,0,0,1-1.16-.69,3,3,0,0,1-.73-1.23,5.8,5.8,0,0,1-.25-1.83,5,5,0,0,1,.45-2.27,2.85,2.85,0,0,1,1.29-1.31,4.49,4.49,0,0,1,2-.42,6.89,6.89,0,0,1,.86.05,5.9,5.9,0,0,1,.81.16v.94a6,6,0,0,0-.79-.16,6.27,6.27,0,0,0-.82-.05,3.24,3.24,0,0,0-1.46.3,1.93,1.93,0,0,0-.89,1,4.31,4.31,0,0,0-.3,1.77,4.38,4.38,0,0,0,.31,1.81,1.9,1.9,0,0,0,.89.95,3.15,3.15,0,0,0,1.41.29,5.07,5.07,0,0,0,.82-.07,5.61,5.61,0,0,0,.85-.21v.94a5,5,0,0,1-.83.2A5.67,5.67,0,0,1,337.74,76Z"/><path class="cls-1" d="M342.77,75.92l2.7-7.76h1.59l2.7,7.76h-1.11l-2.47-7.26h.15l-2.47,7.26Zm1.55-2.38.25-.91H348l.25.91Z"/><path class="cls-1" d="M356.86,76a5,5,0,0,1-1.53-.22,2.9,2.9,0,0,1-1.16-.69,3,3,0,0,1-.73-1.23,5.82,5.82,0,0,1-.25-1.83,5,5,0,0,1,.45-2.27,2.85,2.85,0,0,1,1.29-1.31,4.48,4.48,0,0,1,2-.42,6.87,6.87,0,0,1,.86.05,5.92,5.92,0,0,1,.81.16v.94a6,6,0,0,0-.8-.16A6.26,6.26,0,0,0,357,69a3.24,3.24,0,0,0-1.46.3,1.93,1.93,0,0,0-.9,1,4.32,4.32,0,0,0-.3,1.77,4.39,4.39,0,0,0,.31,1.81,1.91,1.91,0,0,0,.89.95,3.15,3.15,0,0,0,1.41.29,5.07,5.07,0,0,0,.82-.07,5.64,5.64,0,0,0,.85-.21v.94a5.07,5.07,0,0,1-.83.2A5.65,5.65,0,0,1,356.86,76Z"/><path class="cls-1" d="M362.6,75.92V68.15h1.11v7.76Z"/><path class="cls-1" d="M371.34,76a3.59,3.59,0,0,1-1.76-.42,2.79,2.79,0,0,1-1.17-1.3,6.36,6.36,0,0,1,0-4.53,2.8,2.8,0,0,1,1.17-1.3,3.92,3.92,0,0,1,3.53,0,2.8,2.8,0,0,1,1.17,1.3,6.33,6.33,0,0,1,0,4.53,2.81,2.81,0,0,1-1.18,1.3A3.56,3.56,0,0,1,371.34,76Zm0-.93a2.24,2.24,0,0,0,1.17-.3,1.9,1.9,0,0,0,.77-1,4.78,4.78,0,0,0,.27-1.77,4.94,4.94,0,0,0-.27-1.81,1.94,1.94,0,0,0-.77-1,2.23,2.23,0,0,0-1.17-.3,2.25,2.25,0,0,0-1.17.29,1.91,1.91,0,0,0-.77,1,4.73,4.73,0,0,0-.27,1.77,4.94,4.94,0,0,0,.27,1.81,1.91,1.91,0,0,0,.77,1A2.23,2.23,0,0,0,371.34,75.09Z"/><path class="cls-1" d="M379,75.92V68.15h1.13l4.22,6.44h-.23V68.15h1v7.76H384l-4.22-6.44H380v6.44Z"/><path class="cls-1" d="M389.72,75.92V68.15h5v.92h-3.9V75h4v.92Zm.68-3.52v-.92h3.8v.92Z"/><path class="cls-1" d="M400.57,76a6.57,6.57,0,0,1-1-.08,5.9,5.9,0,0,1-1-.24v-.93a6.09,6.09,0,0,0,.67.18,6.65,6.65,0,0,0,.68.11,5.71,5.71,0,0,0,.65,0,2.16,2.16,0,0,0,1.33-.33,1.11,1.11,0,0,0,.42-.94A1,1,0,0,0,402,73a2.7,2.7,0,0,0-1.1-.48l-.47-.12a3.12,3.12,0,0,1-1.5-.78,1.9,1.9,0,0,1-.5-1.38,2,2,0,0,1,.73-1.62,3.41,3.41,0,0,1,2.18-.59,7,7,0,0,1,.93.06,5.06,5.06,0,0,1,.81.17v.93a5.16,5.16,0,0,0-.82-.18,6.32,6.32,0,0,0-.87-.06,3.17,3.17,0,0,0-1.05.15,1.17,1.17,0,0,0-.59.43,1.14,1.14,0,0,0-.19.66,1,1,0,0,0,.29.78,2.36,2.36,0,0,0,1,.47l.47.12a4.21,4.21,0,0,1,1.2.47,1.9,1.9,0,0,1,.69.71,2.06,2.06,0,0,1,.23,1A2.13,2.13,0,0,1,403.1,75a2.11,2.11,0,0,1-1,.77A4,4,0,0,1,400.57,76Z"/><path class="cls-2" d="M101.28,16.51c-5.29,0-5.3,7.94,0,7.94S106.59,16.51,101.28,16.51Z"/><polygon class="cls-3" points="30.01 48.52 30.01 48.52 30.01 48.52 30.01 48.52"/><polygon class="cls-3" points="56.76 5.83 56.76 5.83 56.76 5.83 56.76 5.83"/><path class="cls-4" d="M8.58,28.43C1.5,28.43,1.49,39,8.58,39S15.67,28.43,8.58,28.43Z"/><path class="cls-5" d="M48.64,18.81a21.21,21.21,0,0,1,4.92-5.39,18.12,18.12,0,0,1,6.49-3.23,13.35,13.35,0,0,1,7-.07A9.23,9.23,0,0,1,70,11.49a8.1,8.1,0,0,1,1.14,1l1.15,1.32a12.82,12.82,0,0,1,2.53,6,12.62,12.62,0,0,1-.55,5.84,17.54,17.54,0,0,1-2.67,5c-.48.62-1,1.21-1.53,1.78A62.15,62.15,0,0,0,82.38,14.71a25,25,0,0,0-5.32-5.82L75.12,7.5a15,15,0,0,0-2.25-1.27,18,18,0,0,0-4.75-1.42,23.52,23.52,0,0,0-3.48-.26,25.7,25.7,0,0,0-7.89,1.28h0A60.21,60.21,0,0,0,48.64,18.81Z"/><path class="cls-6" d="M83.48,16.52c-.33-.63-.71-1.23-1.1-1.81A62.15,62.15,0,0,1,70,32.37a27.44,27.44,0,0,1-2.42,2.28,31.79,31.79,0,0,1-2.87,2,16.64,16.64,0,0,1-2.16,1.23,34.09,34.09,0,0,1-6,2.26,44.44,44.44,0,0,1-6.79,1.16c-1.89.18-3.84.24-5.82.23a85.18,85.18,0,0,1-9.1-.54c-1.61-.17-3.23-.4-4.86-.64-3.65-.55-7.37-1.23-11.24-1.86h-.16A.88.88,0,0,0,18,40a54.64,54.64,0,0,0,12,8.52h0c.76.4,1.52.79,2.3,1.16A51.08,51.08,0,0,0,48,54.27c.55.06,1.1.13,1.66.18.78.06,1.55.16,2.34.17l2.38,0a20.13,20.13,0,0,0,2.4-.12c.8-.07,1.61-.14,2.41-.23a39.52,39.52,0,0,0,9.6-2.67A32.47,32.47,0,0,0,77.59,46a27,27,0,0,0,6.3-8.65,24.17,24.17,0,0,0,2.23-10.58A23,23,0,0,0,83.48,16.52Z"/><path class="cls-7" d="M34.85,41a85.18,85.18,0,0,0,9.1.54c-.09-.68-.16-1.36-.22-2a31.52,31.52,0,0,1,0-3.33A28.73,28.73,0,0,1,44,32.62a41.77,41.77,0,0,1,1.55-7.16,27.7,27.7,0,0,1,3.1-6.65,60.21,60.21,0,0,1,8.11-13h0a31.68,31.68,0,0,0-6.33,2.87A41.37,41.37,0,0,0,37.3,21.29a46.84,46.84,0,0,0-4.4,8.1,38.49,38.49,0,0,0-2.72,9.22c-.08.58-.14,1.16-.2,1.74C31.62,40.61,33.24,40.83,34.85,41Z"/><path class="cls-8" d="M64.84,66a28.37,28.37,0,0,1-5.5-1.54,25.79,25.79,0,0,1-4.91-2.76L53.3,60.8l-1.07-1a9.87,9.87,0,0,1-1-1.06l-.5-.55-.25-.27a1.64,1.64,0,0,1-.16-.18,26.23,26.23,0,0,1-1.73-2.57c-.18-.3-.35-.61-.52-.92a51.08,51.08,0,0,1-15.73-4.59c-.78-.37-1.54-.76-2.3-1.16A48,48,0,0,0,32.14,58c.17.54.37,1.07.57,1.6C42.7,63.2,64.83,66,64.84,66Z"/><path class="cls-9" d="M105.22,50.77a38.82,38.82,0,0,0-1.74-17.53.88.88,0,0,0-.65-.57l-.17,0a.87.87,0,0,0-.86.7h0a57.11,57.11,0,0,1-4.89,15A35,35,0,0,1,93,54.4a30.85,30.85,0,0,1-4.77,4.91A29.4,29.4,0,0,1,82.78,63a28,28,0,0,1-5.91,2.34,28.45,28.45,0,0,1-12,.68h0S42.7,63.2,32.71,59.61c.37,1,.76,2,1.19,3a40.62,40.62,0,0,0,2.34,4.54c.12.2.25.4.42.66l.38.54.77,1.07a21.92,21.92,0,0,0,1.62,2.08c.58.66,1.16,1.34,1.77,2l2,1.82a35.65,35.65,0,0,0,9,5.8,37,37,0,0,0,10.28,2.77A39.37,39.37,0,0,0,98.13,68.25a36.39,36.39,0,0,0,4.71-8.43,40.43,40.43,0,0,0,1.5-4.49c.2-.75.33-1.53.49-2.28A18.48,18.48,0,0,0,105.22,50.77Z"/></svg>