<svg id="Capa_1" data-name="Capa 1" xmlns="http://www.w3.org/2000/svg" viewBox="0 0 88.93 63.8"><defs><style>.cls-1,.cls-2{fill:#fff;}.cls-2{fill-rule:evenodd;}</style></defs><path class="cls-1" d="M644.9,386.94h-6.07v-6h6.07v-6.18h6.26v6.18h6.07v6h-6.07v6.19H644.9Z" transform="translate(-638.83 -352.55)"/><polygon class="cls-2" points="83.78 0 88.93 0 88.93 34.72 88.93 34.82 83.78 0"/><path class="cls-2" d="M710,353.85v-1.3h10.36l4,50.76a22.11,22.11,0,0,1-4.6,6.1c-.42.4-.87.78-1.32,1.14Z" transform="translate(-638.83 -352.55)"/><path class="cls-2" d="M706,398.43a11.5,11.5,0,0,0,1-.87q3.11-3.13,3.1-9.76V359.11l4.2,54.07a26.05,26.05,0,0,1-3.71,1.47,32.86,32.86,0,0,1-3.32.86Z" transform="translate(-638.83 -352.55)"/><polygon class="cls-2" points="30.58 35.42 30.58 35.17 30.58 0 37.85 0 30.58 35.42"/><path class="cls-2" d="M698.4,416.35c-1.52,0-3-.06-4.4-.19l1.1-15.89a13.72,13.72,0,0,0,3.48.42,12.81,12.81,0,0,0,5.41-1.08l2,16.14a45.09,45.09,0,0,1-7.54.6" transform="translate(-638.83 -352.55)"/><path class="cls-2" d="M677.48,409.68l-.29-.27a23.17,23.17,0,0,1-5.77-8.94,32.45,32.45,0,0,1-1.78-8l11.11-39.9h6.37v9.59Z" transform="translate(-638.83 -352.55)"/><path class="cls-2" d="M692.68,416a35.23,35.23,0,0,1-6.36-1.36,25.73,25.73,0,0,1-4.81-2.07L687.12,370v17.4q0,6.79,3.11,10.06a10.05,10.05,0,0,0,2.34,1.84Z" transform="translate(-638.83 -352.55)"/></svg>