<svg xmlns="http://www.w3.org/2000/svg" xmlns:xlink="http://www.w3.org/1999/xlink" viewBox="0 0 268 405"><defs><style>.cls-1{fill:none;}.cls-2{isolation:isolate;}.cls-3{fill:url(#linear-gradient);}.cls-4{fill:#ffecff;}.cls-5{fill:url(#linear-gradient-2);}.cls-6{fill:url(#radial-gradient);}.cls-7{fill:#cc7dff;}.cls-8{fill:url(#radial-gradient-2);}.cls-9{fill:url(#radial-gradient-3);}.cls-10{fill:url(#radial-gradient-4);}.cls-11{fill:url(#linear-gradient-3);}.cls-12{fill:#dda9ff;}.cls-13{fill:url(#linear-gradient-4);}.cls-14{fill:url(#radial-gradient-5);}.cls-15{fill:url(#radial-gradient-6);}.cls-16{fill:url(#radial-gradient-7);}.cls-17{fill:url(#radial-gradient-8);}.cls-18{fill:url(#linear-gradient-5);}.cls-19{fill:url(#linear-gradient-6);}.cls-20{clip-path:url(#clip-path);}.cls-21,.cls-36{mix-blend-mode:multiply;}.cls-21{fill:url(#linear-gradient-7);}.cls-22{fill:#ffdcff;}.cls-23{fill:url(#radial-gradient-9);}.cls-24{fill:#ffe4ff;}.cls-25{fill:url(#radial-gradient-10);}.cls-26{fill:url(#radial-gradient-11);}.cls-27{fill:url(#radial-gradient-12);}.cls-28{fill:url(#radial-gradient-13);}.cls-29{fill:url(#linear-gradient-8);}.cls-30{fill:url(#linear-gradient-9);}.cls-31{fill:#ffe7ff;}.cls-32{fill:url(#linear-gradient-10);}.cls-33{fill:#7c26a4;}.cls-34{fill:url(#linear-gradient-11);}.cls-35{fill:url(#linear-gradient-12);}.cls-36{fill:#552c84;opacity:0.42;}.cls-37{fill:url(#linear-gradient-13);}</style><linearGradient id="linear-gradient" x1="239.46" y1="948.66" x2="269.29" y2="948.66" gradientTransform="translate(275.39 -768.73) rotate(25.41)" gradientUnits="userSpaceOnUse"><stop offset="0.01" stop-color="#a02cc2"/><stop offset="0.01" stop-color="#9f2cc1"/><stop offset="0.33" stop-color="#7222a6"/><stop offset="0.61" stop-color="#521b92"/><stop offset="0.84" stop-color="#3e1786"/><stop offset="1" stop-color="#371582"/></linearGradient><linearGradient id="linear-gradient-2" x1="241.02" y1="949.58" x2="263.39" y2="949.58" xlink:href="#linear-gradient"/><radialGradient id="radial-gradient" cx="224.9" cy="1059.46" r="60.67" gradientTransform="translate(275.39 -768.73) rotate(25.41)" gradientUnits="userSpaceOnUse"><stop offset="0.01" stop-color="#a02cc2"/><stop offset="1" stop-color="#371582"/></radialGradient><radialGradient id="radial-gradient-2" cx="225.91" cy="1059.17" r="54.03" xlink:href="#radial-gradient"/><radialGradient id="radial-gradient-3" cx="233.32" cy="1102.08" r="32.98" gradientTransform="translate(-222.77 -766.57)" xlink:href="#radial-gradient"/><radialGradient id="radial-gradient-4" cx="-15.44" cy="2055.91" r="32.98" gradientTransform="matrix(0.88, 0, 0, 0.45, 41.53, -615.28)" gradientUnits="userSpaceOnUse"><stop offset="0" stop-color="#371582"/><stop offset="0.99" stop-color="#a02cc2"/></radialGradient><linearGradient id="linear-gradient-3" x1="348.2" y1="950.68" x2="378.02" y2="950.68" xlink:href="#linear-gradient"/><linearGradient id="linear-gradient-4" x1="349.01" y1="951.88" x2="371.38" y2="951.88" xlink:href="#linear-gradient"/><radialGradient id="radial-gradient-5" cx="333.63" cy="1061.49" r="60.67" xlink:href="#radial-gradient"/><radialGradient id="radial-gradient-6" cx="336.73" cy="1061.54" r="52.22" xlink:href="#radial-gradient"/><radialGradient id="radial-gradient-7" cx="342.06" cy="1104.1" r="32.98" gradientTransform="translate(-234.16 -720.11)" xlink:href="#radial-gradient"/><radialGradient id="radial-gradient-8" cx="107.65" cy="2060.41" r="32.98" gradientTransform="matrix(0.88, 0, 0, 0.45, 30.14, -568.82)" xlink:href="#radial-gradient-4"/><linearGradient id="linear-gradient-5" x1="263.56" y1="910.31" x2="352.51" y2="910.31" gradientTransform="translate(275.39 -768.73) rotate(25.41)" xlink:href="#radial-gradient"/><linearGradient id="linear-gradient-6" x1="264.29" y1="912.58" x2="334.58" y2="912.58" gradientTransform="translate(275.39 -768.73) rotate(25.41)" xlink:href="#radial-gradient"/><clipPath id="clip-path"><path class="cls-1" d="M256.55,31.07l-2.19-15.93a11.11,11.11,0,0,0-16.8-8l0,0-13.69,8.34A161.18,161.18,0,0,0,162.12,84l-4.72,9.93c.25-1.42.5-2.85.7-4.28L160,76.78a4.32,4.32,0,0,0-6.7-4.19,3.5,3.5,0,0,0-.75.65l-8.82,9.56a154.44,154.44,0,0,0-25.87,38.32l-85.51,180-22.19,25,17,8.08-10.83-5.15-.86,1.81,24,11.41-1.62,3.42,80.34,38.17.76-1.6,24.35,11.57.86-1.81-1.92-.92h0l9,4.29,5.36-33,85.51-180a154.49,154.49,0,0,0,13.36-44.26l1.84-12.88a4.32,4.32,0,0,0-6.7-4.19,3.5,3.5,0,0,0-.75.65L241,131.29c-2.25,2.44-4.4,5-6.49,7.55l7.92-16.67A161.17,161.17,0,0,0,256.55,31.07Z"/></clipPath><linearGradient id="linear-gradient-7" x1="-26.52" y1="978.29" x2="23.79" y2="1088.75" gradientTransform="translate(-39.37 -793.41) rotate(-10.04)" gradientUnits="userSpaceOnUse"><stop offset="0.01" stop-color="#de3dbf"/><stop offset="1" stop-color="#67219e"/></linearGradient><radialGradient id="radial-gradient-9" cx="-330.65" cy="900.13" r="200.48" gradientTransform="matrix(0.69, 0.33, -0.43, 0.9, 701.59, -566.47)" gradientUnits="userSpaceOnUse"><stop offset="0" stop-color="#67219e"/><stop offset="0.99" stop-color="#de3dbf"/></radialGradient><radialGradient id="radial-gradient-10" cx="217.44" cy="903.28" r="188.8" gradientTransform="translate(275.39 -768.73) rotate(25.41)" xlink:href="#linear-gradient-7"/><radialGradient id="radial-gradient-11" cx="221.52" cy="960.86" r="127.86" gradientTransform="translate(275.39 -768.73) rotate(25.41)" xlink:href="#linear-gradient-7"/><radialGradient id="radial-gradient-12" cx="311.87" cy="903.28" r="188.8" gradientTransform="translate(275.39 -768.73) rotate(25.41)" xlink:href="#linear-gradient-7"/><radialGradient id="radial-gradient-13" cx="353.2" cy="960.2" r="128.55" gradientTransform="translate(275.39 -768.73) rotate(25.41)" xlink:href="#linear-gradient-7"/><linearGradient id="linear-gradient-8" x1="468.12" y1="932.47" x2="346.02" y2="939.1" gradientTransform="translate(275.39 -768.73) rotate(25.41)" xlink:href="#linear-gradient-7"/><linearGradient id="linear-gradient-9" x1="283.17" y1="941.81" x2="333.08" y2="941.81" gradientTransform="translate(275.39 -768.73) rotate(25.41)" xlink:href="#linear-gradient-7"/><linearGradient id="linear-gradient-10" x1="-121.88" y1="1148.89" x2="-24.18" y2="1148.89" xlink:href="#linear-gradient-7"/><linearGradient id="linear-gradient-11" x1="296.17" y1="846.51" x2="331.79" y2="846.51" gradientTransform="translate(275.39 -768.73) rotate(25.41)" xlink:href="#linear-gradient-7"/><linearGradient id="linear-gradient-12" x1="297.66" y1="801.72" x2="338.77" y2="798.94" gradientTransform="translate(275.39 -768.73) rotate(25.41)" xlink:href="#linear-gradient-7"/><linearGradient id="linear-gradient-13" x1="314.77" y1="1014.13" x2="310.32" y2="1141.59" gradientTransform="translate(275.39 -768.73) rotate(25.41)" xlink:href="#linear-gradient-7"/></defs><g class="cls-2"><g id="Capa_1" data-name="Capa 1"><path class="cls-3" d="M144.75,133.91,52.18,328.78,25.25,316l92.56-194.86A154.44,154.44,0,0,1,143.68,82.8l8.82-9.56a3.5,3.5,0,0,1,.75-.65,4.32,4.32,0,0,1,6.7,4.19L158.1,89.66A154,154,0,0,1,144.75,133.91Z"/><path class="cls-4" d="M138,130.72,45.45,325.58,25.25,316l92.56-194.86A154.44,154.44,0,0,1,143.68,82.8l8.82-9.56a3.5,3.5,0,0,1,.75-.65,3.7,3.7,0,0,1,0,1l-1.84,12.88A154.49,154.49,0,0,1,138,130.72Z"/><path class="cls-5" d="M139.48,131.25,46.92,326.12l-20.2-9.6,92.56-194.86a154.44,154.44,0,0,1,25.87-38.32L154,73.78a4.55,4.55,0,0,1,.75-.66,3.75,3.75,0,0,1,0,1L152.84,87A154.34,154.34,0,0,1,139.48,131.25Z"/><polygon class="cls-6" points="53.88 346.93 10.11 326.14 32.3 301.15 59.23 313.94 53.88 346.93"/><polygon class="cls-7" points="43.21 341.87 10.11 326.14 32.3 301.15 48.57 308.88 43.21 341.87"/><polygon class="cls-8" points="45.47 342.7 10.11 326.14 34.55 301.98 50.83 309.7 45.47 342.7"/><rect class="cls-9" x="14.22" y="336.22" width="33.75" height="2" transform="translate(147.7 19.28) rotate(25.41)"/><rect class="cls-10" x="31.05" y="306.69" width="29.82" height="0.9" transform="translate(136.23 9.99) rotate(25.41)"/><path class="cls-11" d="M242.1,182.4,149.54,377.26,122.6,364.47,215.17,169.6A154.43,154.43,0,0,1,241,131.29l8.82-9.57a3.5,3.5,0,0,1,.75-.65,4.32,4.32,0,0,1,6.7,4.19l-1.84,12.88A154.49,154.49,0,0,1,242.1,182.4Z"/><path class="cls-12" d="M235.37,179.2,142.8,374.06l-20.2-9.59L215.17,169.6A154.43,154.43,0,0,1,241,131.29l8.82-9.57a3.5,3.5,0,0,1,.75-.65,4.13,4.13,0,0,1,0,1l-1.85,12.88A154.16,154.16,0,0,1,235.37,179.2Z"/><path class="cls-13" d="M236,179.67,143.48,374.53l-20.2-9.59,92.56-194.87a154.2,154.2,0,0,1,25.87-38.31l8.81-9.57a4.06,4.06,0,0,1,.75-.65,3.68,3.68,0,0,1,0,1l-1.84,12.88A154.49,154.49,0,0,1,236,179.67Z"/><polygon class="cls-14" points="151.23 395.42 107.46 374.62 129.65 349.63 156.59 362.42 151.23 395.42"/><polygon class="cls-7" points="140.57 390.35 107.46 374.62 129.65 349.63 145.92 357.36 140.57 390.35"/><polygon class="cls-15" points="142.19 391.18 109.08 375.46 131.27 350.46 147.54 358.19 142.19 391.18"/><rect class="cls-16" x="111.57" y="384.7" width="33.75" height="2" transform="translate(177.92 -17.8) rotate(25.41)"/><rect class="cls-17" x="128.4" y="355.17" width="29.82" height="0.9" transform="translate(166.45 -27.09) rotate(25.41)"/><path class="cls-18" d="M242.46,122.17,118.15,383.88,37.81,345.71,162.12,84a161.18,161.18,0,0,1,61.71-68.48l13.69-8.34,0,0a11.11,11.11,0,0,1,16.8,8l2.19,15.93A161.17,161.17,0,0,1,242.46,122.17Z"/><path class="cls-7" d="M225.61,114.17,101.3,375.87,37.81,345.71,162.12,84a161.18,161.18,0,0,1,61.71-68.48l13.69-8.34,2.18,15.87A161.19,161.19,0,0,1,225.61,114.17Z"/><path class="cls-19" d="M226.38,114.24,102.07,376,38.58,345.79,162.9,84.08A161.09,161.09,0,0,1,224.6,15.6l13.69-8.33,2.18,15.87A161.08,161.08,0,0,1,226.38,114.24Z"/><g class="cls-20"><path class="cls-21" d="M230.16,84.17A10.43,10.43,0,0,0,229,83.7l-.38-.11c-.28-.08-.56-.16-.84-.22s-.3-.05-.45-.08l-.8-.11-.49,0q-.39,0-.78,0c-.17,0-.34,0-.51,0s-.51,0-.77.09l-.52.1c-.25,0-.5.12-.75.19l-.54.16-.69.28-.58.26-.11,0c-.34.18-.67.37-1,.59q-6.83,4.53-13.17,9.68a169.47,169.47,0,0,0-46.32,58.91l-39.83,83.86-75,33.35L19.2,319.76l1.2.43-1.88,3.51,42.32,15.18,2.08.74L51.15,353.39a4.68,4.68,0,0,0,1.55,7.27l3.24,1.54-1.63,3.44,24.18,11.48,1.63-3.43,7.51,3.57L81,392a2.66,2.66,0,0,0,1.29,3.51,3.31,3.31,0,0,0,.45.12,2.13,2.13,0,0,0,.42.3,2.67,2.67,0,0,0,3.54-1.21L94,380.27l6,2.86-1.63,3.43L122.54,398l1.63-3.43,3.9,1.85a4.68,4.68,0,0,0,6.62-3.39l3.23-17.81,1.51.91,38.89,23.44,1.53-3.67.16.1,21.43-51.37-21.15-77.82,40.26-84.74a169.31,169.31,0,0,0,13.88-43.66,168,168,0,0,0,2.51-29.72q0-8-.8-16.06A10.47,10.47,0,0,0,230.16,84.17Z"/></g><polygon class="cls-22" points="87.64 343.84 8.94 319.79 35.9 266.8 142.24 219.49 87.64 343.84"/><polygon class="cls-23" points="89.31 345.23 11.29 317.24 35.23 270.73 143.91 220.87 89.31 345.23"/><polygon class="cls-24" points="99.45 349.35 168.75 395.7 191.86 340.77 161.34 228.45 99.45 349.35"/><polygon class="cls-25" points="86.96 347.78 51.26 334.97 8.94 319.79 35.23 270.73 90.21 246.27 141.56 223.43 86.96 347.78"/><polygon class="cls-26" points="51.26 334.97 8.94 319.79 35.23 270.73 90.21 246.27 51.26 334.97"/><polygon class="cls-27" points="168.75 395.7 129.85 372.26 97.75 352.91 159.65 232.02 174.22 285.63 190.16 344.33 168.75 395.7"/><polygon class="cls-28" points="168.75 395.7 129.85 372.26 174.22 285.63 190.16 344.33 168.75 395.7"/><path class="cls-29" d="M211,178.2,122.39,364.69,62.13,336.06l88.59-186.48A169.44,169.44,0,0,1,197,90.67q6.33-5.15,13.18-9.68a11.25,11.25,0,0,1,1-.58,10.57,10.57,0,0,1,15.35,8.35q.8,8,.81,16.06a168.91,168.91,0,0,1-2.51,29.72A169.59,169.59,0,0,1,211,178.2Z"/><path class="cls-24" d="M195.8,171,107.22,357.48,62.13,336.06l88.59-186.48A169.44,169.44,0,0,1,197,90.67q6.33-5.15,13.18-9.68a11.25,11.25,0,0,1,1-.58,10.42,10.42,0,0,1,.18,1.14q.8,8,.81,16.06a168.94,168.94,0,0,1-2.51,29.73A169.45,169.45,0,0,1,195.8,171Z"/><path class="cls-30" d="M197.47,171.61,108.89,358.09,63.8,336.67l88.58-186.48A169.68,169.68,0,0,1,198.7,91.28c4.22-3.42,8.62-6.66,13.18-9.68a11.25,11.25,0,0,1,1-.58c.08.37.13.75.18,1.15q.8,8,.8,16.06a168.9,168.9,0,0,1-2.5,29.72A169.72,169.72,0,0,1,197.47,171.61Z"/><path class="cls-31" d="M118.49,392.56l-75.36-35.8a4.68,4.68,0,0,1-1.55-7.28l39.83-46.59a18.85,18.85,0,0,1,22.4-4.76l21.79,10.35a18.83,18.83,0,0,1,10.45,20.37l-10.94,60.31A4.69,4.69,0,0,1,118.49,392.56Z"/><path class="cls-32" d="M134.07,332.08l-10.74,59.21a4.61,4.61,0,0,1-6.49,3.35l-33.9-16.1L77.53,376l-34.7-16.49a4.61,4.61,0,0,1-1.51-7.15l39.1-45.75a18.49,18.49,0,0,1,22-4.67l6.91,3.29,8.42,4,6.06,2.89A18.47,18.47,0,0,1,134.07,332.08Z"/><rect class="cls-33" x="42.27" y="365.68" width="26.77" height="3.8" transform="translate(163.1 11.67) rotate(25.41)"/><rect class="cls-33" x="86.32" y="386.6" width="26.77" height="3.8" transform="translate(176.34 -5.2) rotate(25.41)"/><path class="cls-34" d="M207.2,142.31a2.51,2.51,0,0,1-1.29-1.42,19.17,19.17,0,0,0-24.47-11.62,2.5,2.5,0,1,1-1.67-4.71,24.17,24.17,0,0,1,30.85,14.66,2.49,2.49,0,0,1-3.42,3.09Z"/><path class="cls-35" d="M227.37,104.82c-5.69-10-15.48-14.89-30.34-14.15q6.33-5.15,13.18-9.68a10.57,10.57,0,0,1,16.35,7.77Q227.36,96.79,227.37,104.82Z"/><path class="cls-36" d="M119.2,306.3l-1.46,2.9-34.8,69.34L77.53,376l31.79-70.77,1.32-3C114.76,301.45,117.36,303.21,119.2,306.3Z"/><path class="cls-37" d="M108.85,301.06c4.12-.8,6.72,1,8.54,4.06L74.56,390.5A2.67,2.67,0,0,1,71,391.71h0a2.68,2.68,0,0,1-1.29-3.51Z"/></g></g></svg>